<?xml version="1.0" encoding="utf-8"?>
<!-- Generator: Adobe Illustrator 24.0.0, SVG Export Plug-In . SVG Version: 6.00 Build 0)  -->
<svg version="1.1" id="Layer_1" xmlns="http://www.w3.org/2000/svg" xmlns:xlink="http://www.w3.org/1999/xlink" x="0px" y="0px"
	 viewBox="0 0 500 500" style="enable-background:new 0 0 500 500;" xml:space="preserve">
<style type="text/css">
	.st0{fill:#FAEBD7;}
</style>
<g>
	<path class="st0" d="M10.16,500.48h481.22c4.75,0,8.61-3.86,8.61-8.61v-68.91c0-0.26-0.12-0.48-0.16-0.74
		c-0.05-0.57-0.17-1.12-0.34-1.67c-0.17-0.57-0.38-1.1-0.65-1.62c-0.12-0.22-0.14-0.47-0.28-0.69L260.58,57l28.05-42.76
		c2.6-3.98,1.5-9.32-2.48-11.92c-3.96-2.6-9.32-1.48-11.92,2.48l-23.96,36.52L226.17,4.77c-2.62-3.96-7.94-5.05-11.92-2.46
		c-3.98,2.62-5.06,7.96-2.46,11.92l28.17,42.76L2.96,418.24c-0.14,0.22-0.16,0.47-0.28,0.69c-0.28,0.52-0.48,1.05-0.65,1.62
		c-0.17,0.57-0.29,1.1-0.34,1.67c-0.02,0.26-0.16,0.48-0.16,0.74v68.91C1.55,496.64,5.41,500.48,10.16,500.48z M475.4,414.34h-81.62
		v-58.95c0-2.58-1.15-5.03-3.17-6.68c-2.02-1.64-4.63-2.29-7.18-1.76c-47.99,9.89-110.98-41.35-124.59-53.04V85.63L475.4,414.34z
		 M249.22,315.15c0.34,0.03,0.64,0.19,0.98,0.19c0.52,0,0.98-0.21,1.48-0.29l32.46,46.67h-67.31L249.22,315.15z M376.55,464.41
		l-89.06-128.07c25.32,15.76,58.33,30.89,89.06,28.89V464.41z M124.45,464.41v-99.16c30.77,2,63.74-13.13,89.05-28.89L124.45,464.41
		z M204.86,378.94h91.27l72.54,104.31H132.32L204.86,378.94z M241.59,294.41c-14.92,12.71-76.75,62.29-124.02,52.54
		c-2.53-0.53-5.17,0.12-7.18,1.76c-2.02,1.64-3.17,4.08-3.17,6.68v58.95H26.12L241.59,85.93V294.41z M18.78,431.57h88.44v51.68
		H18.78V431.57z M393.78,483.25v-51.68h89.01v51.68H393.78z"/>
	<path class="st0" d="M296.79,216.71c4.07-2.48,9.37-1.19,11.85,2.86l21.6,35.37c2.48,4.07,1.19,9.35-2.86,11.85
		c-1.41,0.86-2.95,1.26-4.48,1.26c-2.89,0-5.74-1.46-7.36-4.12l-21.6-35.37C291.45,224.48,292.74,219.2,296.79,216.71z"/>
</g>
</svg>
