<?xml version="1.0" encoding="utf-8"?>
<!-- Generator: Adobe Illustrator 24.0.0, SVG Export Plug-In . SVG Version: 6.00 Build 0)  -->
<svg version="1.1" id="Layer_1" xmlns="http://www.w3.org/2000/svg" xmlns:xlink="http://www.w3.org/1999/xlink" x="0px" y="0px"
	 viewBox="0 0 500 500" style="enable-background:new 0 0 500 500;" xml:space="preserve">
<style type="text/css">
	.st0{fill:#FAEBD7;}
</style>
<g>
	<path class="st0" d="M74.16,370.77c3.32-5.47,10.46-7.19,15.91-3.87s7.19,10.46,3.87,15.91c-3.32,5.45-10.46,7.19-15.91,3.87
		C72.58,383.37,70.84,376.24,74.16,370.77z"/>
	<path class="st0" d="M3.76,383.59c1.41,0.84,2.94,1.26,4.47,1.26c2.91,0,5.73-1.46,7.36-4.13l15.79-25.95l12.96,7.9
		c-2.75,7.67-3.23,15.98-1.27,24.1c0.88,3.61,2.36,6.97,4.09,10.15c-4.11,2.01-7.79,4.73-10.24,8.74L3.91,459.88
		c-3.36,5.52-4.37,12.01-2.86,18.29c1.53,6.28,5.4,11.58,10.93,14.95l5.51,3.34c3.84,2.34,8.16,3.54,12.54,3.54
		c1.91,0,3.84-0.22,5.75-0.69c6.28-1.53,11.58-5.4,14.95-10.93l33.02-54.21l0,0c2.94-4.83,3.87-10.31,3.22-15.55
		c13.18-0.93,25.77-7.74,33.14-19.85c8.83-14.49,7.76-32.19-1.12-45.44c18.6-4.94,49-16.67,70.47-43.6
		c17.79-22.3,25.77-50.38,23.79-83.57c17.81-0.67,55.73-5.4,83.38-32.12c20.11-19.41,30.66-46.35,31.43-80.18
		c25.58,0.86,94.47-3.39,134.84-70.13v300.21c-4.08,1.32-7.86,3.48-10.98,6.62c-5.14,5.16-7.95,12.03-7.93,19.32
		c0.02,7.3,2.89,14.14,8.07,19.29c3.05,3.03,6.73,5.14,10.7,6.45l0.12,39.97c0.03,10.5-8.46,19.05-18.98,19.08
		c-0.02,0-0.03,0-0.05,0c-10.46,0-18.99-8.5-19.01-18.96l-0.02-6.16l0.03,0.03c1.65,1.51,3.73,2.25,5.82,2.25
		c2.32,0,4.65-0.95,6.33-2.79c3.22-3.51,2.98-8.95-0.52-12.16l-14.52-13.32c-0.6-0.57-1.34-0.88-2.05-1.24
		c-0.17-0.09-0.26-0.28-0.43-0.36c-0.07-0.03-0.14,0-0.19-0.02c-1.36-0.53-2.8-0.64-4.23-0.45c-0.41,0.05-0.76,0.17-1.15,0.28
		c-1.17,0.33-2.24,0.86-3.22,1.67c-0.17,0.14-0.4,0.14-0.55,0.29l-13.8,13.4c-3.41,3.3-3.48,8.76-0.17,12.16
		c3.08,3.18,8.02,3.46,11.42,0.81l0.02,5.61c0.07,19.94,16.29,36.11,36.2,36.11c0.05,0,0.09,0,0.14,0
		c19.98-0.07,36.18-16.38,36.11-36.34l-0.12-39.97c3.97-1.32,7.64-3.48,10.68-6.52c5.14-5.16,7.95-12.03,7.93-19.32
		c-0.02-7.3-2.89-14.14-8.07-19.29c-2.98-2.96-6.56-5.04-10.41-6.37V8.76c0-2.87-1.43-5.56-3.84-7.16
		c-2.37-1.58-5.39-1.88-8.09-0.79C416.58,22.24,367.5,54.35,322.81,90.43l-8.74-9.76c-3.18-3.58-8.62-3.84-12.15-0.67
		c-3.53,3.17-3.84,8.6-0.65,12.15l8.24,9.2c-38.49,32.36-73.36,67.29-103.32,100.29l-11.48-9.77c-3.61-3.08-9.03-2.65-12.13,0.98
		c-3.08,3.61-2.65,9.05,0.98,12.13l11.13,9.48c-50.17,56.78-84.6,105.67-96.19,122.71c-15.83-5.78-33.76-1.5-45.25,10.79
		L32.97,335.6c-1.94-1.19-4.3-1.55-6.5-1.02c-2.22,0.53-4.13,1.93-5.32,3.89L0.89,371.77C-1.59,375.81-0.3,381.11,3.76,383.59z
		 M471.26,359.73c0,0,0.02,0,0.03,0c2.67,0,5.2,1.05,7.11,2.92c1.89,1.89,2.96,4.44,2.98,7.12c0.02,2.7-1.03,5.23-2.92,7.16
		c-1.89,1.91-4.44,2.96-7.14,2.98c0,0-0.02,0-0.03,0c-2.67,0-5.2-1.05-7.11-2.92c-1.89-1.89-2.96-4.44-2.98-7.12
		c-0.02-2.7,1.03-5.23,2.92-7.16C466.01,360.79,468.56,359.73,471.26,359.73z M452.63,26.8C422.85,83.87,372.16,95.26,343,96.74
		C377.48,69.59,414.36,45.28,452.63,26.8z M309.93,124.19c-2.41,23.95-10.65,43.34-25.15,57.4c-18.43,17.84-43.13,24.12-60.29,26.31
		C249.92,180.24,278.67,151.44,309.93,124.19z M196.13,239.74c-1.94,62.56-47.28,86.37-74.88,95.04
		C135.55,314.75,161.57,279.84,196.13,239.74z M62.72,363.8c4.7-7.73,12.96-11.97,21.39-11.97c4.42,0,8.91,1.17,12.96,3.63
		c11.77,7.17,15.5,22.59,8.34,34.34c-7.16,11.73-22.54,15.5-34.31,8.36l-0.05-0.03c-5.69-3.48-9.7-8.96-11.27-15.43
		C58.21,376.21,59.25,369.5,62.72,363.8z M57.58,411.26c1.24,0,2.49,0.33,3.61,1.02l0.88,0.53c0.02,0.02,0.03,0.02,0.05,0.03
		c0.02,0,0.02,0,0.03,0.02l4.54,2.77c3.29,2.01,4.32,6.3,2.32,9.58L36,479.42c-0.96,1.6-2.49,2.72-4.3,3.15
		c-1.77,0.46-3.65,0.17-5.26-0.83l-5.51-3.36c-1.6-0.96-2.72-2.49-3.15-4.3c-0.45-1.81-0.15-3.68,0.83-5.28l33.02-54.21
		C52.93,412.44,55.22,411.26,57.58,411.26z"/>
</g>
</svg>
