<?xml version="1.0" encoding="utf-8"?>
<!-- Generator: Adobe Illustrator 24.0.0, SVG Export Plug-In . SVG Version: 6.00 Build 0)  -->
<svg version="1.1" id="Layer_1" xmlns="http://www.w3.org/2000/svg" xmlns:xlink="http://www.w3.org/1999/xlink" x="0px" y="0px"
	 viewBox="0 0 500 500" style="enable-background:new 0 0 500 500;" xml:space="preserve">
<style type="text/css">
	.st0{fill:#FAEBD7;}
</style>
<g>
	<path class="st0" d="M483.44,341.87v-27.95c0-42.72-34.77-77.49-77.49-77.49h-49.09c-12.59,0-28.1-4.84-44.49-12.12l0.34-0.72
		c2.01-4.3,0.15-9.44-4.15-11.45c-4.27-2.03-9.44-0.17-11.45,4.15l-0.26,0.57c-6.92-3.58-13.86-7.44-20.77-11.54l0.59-0.9
		c2.63-3.96,1.57-9.3-2.39-11.93c-3.96-2.62-9.32-1.57-11.93,2.41l-0.95,1.43c-6.92-4.39-13.67-8.83-20.06-13.21l0.55-0.55
		c3.37-3.34,3.41-8.8,0.07-12.17s-8.83-3.41-12.17-0.05l-2.77,2.74c-9.49-6.8-17.58-12.9-23.95-17.8
		c7.06-4.61,11.74-12.55,11.74-21.61V99.24c0-14.24-11.59-25.83-25.83-25.83H25.39C11.15,73.41-0.44,85-0.44,99.24v34.44
		c0,12.4,8.78,22.76,20.46,25.24v182.09c-11.11,2.88-19.37,12.91-19.37,24.9v35.13c0,14.24,11.59,25.83,25.83,25.83h119.81
		c2.96,0,5.72-1.52,7.3-4.03l14.69-23.4h61.28l18.22,24.04c0.1,0.14,0.28,0.19,0.4,0.33c0.6,0.71,1.31,1.26,2.12,1.74
		c0.28,0.17,0.5,0.4,0.79,0.53c1.1,0.5,2.29,0.83,3.56,0.83h33.9c0.31,0,0.57-0.14,0.86-0.17c0.6-0.07,1.19-0.17,1.77-0.36
		c0.53-0.17,1-0.4,1.48-0.65c0.46-0.26,0.9-0.53,1.33-0.9c0.46-0.38,0.84-0.81,1.22-1.29c0.19-0.24,0.46-0.4,0.64-0.67l9.71-15.5
		l9.11,15.33c0.12,0.21,0.36,0.29,0.5,0.48c0.6,0.86,1.34,1.57,2.22,2.15c0.29,0.21,0.55,0.43,0.86,0.59c1.17,0.59,2.43,1,3.82,1
		h30.13c0.31,0,0.57-0.14,0.88-0.17c0.6-0.07,1.19-0.17,1.77-0.36c0.52-0.17,1-0.38,1.46-0.65c0.48-0.26,0.91-0.55,1.34-0.9
		c0.46-0.38,0.84-0.81,1.21-1.27c0.19-0.24,0.46-0.4,0.64-0.67l9.71-15.5l9.11,15.33c0.12,0.21,0.36,0.29,0.5,0.48
		c0.6,0.86,1.34,1.57,2.22,2.15c0.29,0.21,0.55,0.43,0.86,0.59c1.17,0.59,2.43,1,3.82,1h30.13c0.31,0,0.57-0.14,0.88-0.17
		c0.6-0.07,1.19-0.17,1.77-0.36c0.52-0.17,1-0.38,1.46-0.65c0.48-0.26,0.91-0.55,1.34-0.9c0.46-0.38,0.84-0.81,1.21-1.27
		c0.19-0.24,0.46-0.4,0.64-0.67l9.71-15.5l9.11,15.33c0.12,0.21,0.36,0.29,0.5,0.48c0.6,0.86,1.34,1.57,2.22,2.15
		c0.29,0.21,0.55,0.43,0.86,0.59c1.17,0.59,2.43,1,3.82,1h24.78c14.24,0,25.83-11.59,25.83-25.83v-35.13
		C500,354.96,493.1,345.63,483.44,341.87z M466.22,313.93v26.16H365.47v-86.42h40.48C439.18,253.66,466.22,280.71,466.22,313.93z
		 M189.59,228.85c0.72,7.78-5.03,14.71-12.81,15.43c-7.59,0.69-14.69-5.03-15.43-12.79c-0.72-7.8,5.03-14.71,12.81-15.43
		c0.43-0.03,0.88-0.07,1.31-0.07C182.7,215.97,188.9,221.49,189.59,228.85z M194.46,205.36c-6.08-4.67-13.79-7.21-21.89-6.46
		c-17.24,1.6-29.96,16.93-28.36,34.18c1.53,16.24,15.24,28.48,31.24,28.48c0.98,0,1.95-0.03,2.94-0.14
		c17.22-1.62,29.94-16.94,28.34-34.16c0,0,0,0,0-0.02c-0.26-2.79-1-5.39-1.95-7.9l24.07-23.87c7.27,5.01,14.96,10.11,23,15.19
		l-20.66,31.06c-2.63,3.96-1.57,9.3,2.39,11.93c1.48,0.98,3.13,1.43,4.77,1.43c2.77,0,5.51-1.34,7.16-3.84l21.04-31.61
		c7.59,4.48,15.29,8.83,23,12.78l-14.76,31.55c-2.01,4.3-0.15,9.44,4.15,11.45c1.17,0.55,2.43,0.81,3.65,0.81
		c3.24,0,6.34-1.83,7.8-4.96l14.71-31.42c15.31,6.8,30.05,11.55,43.13,13.1v87.16h-97.22H146.28h-16.89
		c-2.5-27.38-12.17-49.32-29.44-64.74c-21.7-19.41-48.82-23.5-62.71-24.28v-91.55h143.3c5.06,4.1,17.58,14,34.06,25.88
		L194.46,205.36z M37.24,268.35c11.67,0.77,33.85,4.27,51.24,19.82c13.59,12.16,21.32,29.75,23.64,51.92H37.24V268.35z M16.8,133.69
		V99.25c0-4.75,3.87-8.61,8.61-8.61h163.58c4.74,0,8.61,3.86,8.61,8.61v34.44c0,4.75-3.87,8.61-8.61,8.61H25.41
		C20.65,142.3,16.8,138.45,16.8,133.69z M482.78,401.05c0,4.75-3.87,8.61-8.61,8.61h-19.89l-13.81-23.23
		c-1.53-2.58-4.29-4.18-7.3-4.22c-3.39,0.07-5.8,1.5-7.4,4.03l-14.69,23.4h-20.47l-13.81-23.23c-1.53-2.58-4.29-4.18-7.3-4.22
		c-2.58,0.07-5.8,1.5-7.4,4.03l-14.69,23.4h-20.46l-13.81-23.23c-1.53-2.58-4.29-4.18-7.3-4.22c-3.27,0.07-5.8,1.5-7.4,4.03
		l-14.69,23.4H258.9l-18.22-24.04c-0.12-0.15-0.29-0.22-0.43-0.38c-0.4-0.46-0.86-0.81-1.34-1.19c-0.43-0.31-0.83-0.64-1.29-0.86
		c-0.5-0.24-1.02-0.38-1.55-0.53c-0.55-0.15-1.08-0.29-1.67-0.33c-0.21-0.02-0.38-0.12-0.59-0.12h-70.32c-2.96,0-5.72,1.52-7.3,4.03
		l-14.69,23.4H26.47c-4.74,0-8.61-3.86-8.61-8.61v-35.13c0-4.75,3.87-8.61,8.61-8.61h119.81h104.76h223.13
		c4.74,0,8.61,3.86,8.61,8.61V401.05z"/>
</g>
</svg>
