<?xml version="1.0" encoding="utf-8"?>
<!-- Generator: Adobe Illustrator 24.0.0, SVG Export Plug-In . SVG Version: 6.00 Build 0)  -->
<svg version="1.1" id="Layer_1" xmlns="http://www.w3.org/2000/svg" xmlns:xlink="http://www.w3.org/1999/xlink" x="0px" y="0px"
	 viewBox="0 0 500 500" style="enable-background:new 0 0 500 500;" xml:space="preserve">
<style type="text/css">
	.st0{fill:#FAEBD7;}
</style>
<g>
	<path class="st0" d="M209.68,233.87c-35.57,0-64.52,28.94-64.52,64.52s28.94,64.52,64.52,64.52s64.52-28.94,64.52-64.52
		S245.25,233.87,209.68,233.87z M209.68,346.77c-26.69,0-48.39-21.7-48.39-48.39c0-26.69,21.7-48.39,48.39-48.39
		s48.39,21.7,48.39,48.39C258.06,325.07,236.36,346.77,209.68,346.77z"/>
	<path class="st0" d="M475.81,274.19h-56.45v-60.77l-17.72-11.81l17.72-11.81v-76.9c8.9,0,16.13-7.23,16.13-16.13h32.26V80.65h8.06
		c13.34,0,24.19-10.85,24.19-24.19s-10.85-24.19-24.19-24.19h-8.06V16.13h-32.26c0-8.9-7.23-16.13-16.13-16.13H80.65
		c-8.9,0-16.13,7.23-16.13,16.13H32.26v16.13h-8.06C10.85,32.26,0,43.11,0,56.45s10.85,24.19,24.19,24.19h8.06v16.13h32.26
		c0,8.9,7.23,16.13,16.13,16.13V500h68.83l11.81-17.72L173.1,500h246.25V322.58h56.45c13.34,0,24.19-10.85,24.19-24.19
		C500,285.05,489.15,274.19,475.81,274.19z M24.19,64.52c-4.44,0-8.06-3.62-8.06-8.06s3.62-8.06,8.06-8.06h8.06v16.13H24.19z
		 M48.39,80.65V32.26h16.13v48.39H48.39z M475.81,48.39c4.44,0,8.06,3.62,8.06,8.06s-3.62,8.06-8.06,8.06h-8.06V48.39H475.81z
		 M451.61,32.26v48.39h-16.13V32.26H451.61z M80.65,16.13h338.71l0.01,80.65H80.65V16.13z M403.23,483.87H181.73l-20.44-30.67
		l-20.44,30.67H96.77V112.9h306.45v68.27l-30.67,20.44l30.67,20.44v52.14h-32.26v-16.13h-16.13v16.13h-16.13v-16.13h-16.13v16.13
		h-19.31c-10.78-41.67-48.6-72.58-93.59-72.58c-53.36,0-96.77,43.41-96.77,96.77s43.41,96.77,96.77,96.77
		c44.99,0,82.81-30.91,93.59-72.58h19.31v16.13h16.13v-16.13h16.13v16.13h16.13v-16.13h32.26V483.87z M306.04,290.32h16.54v16.13
		h-16.54c0.23-2.67,0.41-5.34,0.41-8.06C306.45,295.66,306.27,292.99,306.04,290.32z M338.71,290.32h16.13v16.13h-16.13V290.32z
		 M290.32,298.39c0,44.47-36.18,80.65-80.65,80.65s-80.65-36.18-80.65-80.65s36.18-80.65,80.65-80.65S290.32,253.92,290.32,298.39z
		 M475.81,306.45H370.97v-16.13h104.84c4.44,0,8.06,3.61,8.06,8.06S480.25,306.45,475.81,306.45z"/>
	<rect x="112.9" y="129.03" class="st0" width="112.9" height="16.13"/>
	<rect x="241.94" y="129.03" class="st0" width="16.13" height="16.13"/>
	<rect x="112.9" y="161.29" class="st0" width="145.16" height="16.13"/>
	<rect x="274.19" y="419.35" class="st0" width="112.9" height="16.13"/>
	<rect x="241.94" y="419.35" class="st0" width="16.13" height="16.13"/>
	<rect x="241.94" y="451.61" class="st0" width="145.16" height="16.13"/>
</g>
</svg>
