<?xml version="1.0" encoding="utf-8"?>
<!-- Generator: Adobe Illustrator 24.0.0, SVG Export Plug-In . SVG Version: 6.00 Build 0)  -->
<svg version="1.1" id="Layer_1" xmlns="http://www.w3.org/2000/svg" xmlns:xlink="http://www.w3.org/1999/xlink" x="0px" y="0px"
	 viewBox="0 0 1920 1298" style="enable-background:new 0 0 1920 1298;" xml:space="preserve">
<style type="text/css">
	.st0{clip-path:url(#SVGID_2_);fill:#3B3F3B;}
	.st1{clip-path:url(#SVGID_2_);fill:#3B443B;}
	.st2{opacity:0.2;clip-path:url(#SVGID_2_);}
	.st3{clip-path:url(#SVGID_2_);}
	.st4{fill:#2D3A2E;}
	.st5{fill-rule:evenodd;clip-rule:evenodd;fill:#1F2820;}
	.st6{fill:#1A2D1D;}
	.st7{fill-rule:evenodd;clip-rule:evenodd;fill:#142116;}
	
		.st8{clip-path:url(#SVGID_2_);fill-rule:evenodd;clip-rule:evenodd;fill:#1D2318;stroke:#1D2318;stroke-linecap:round;stroke-linejoin:round;stroke-miterlimit:10;}
	.st9{clip-path:url(#SVGID_2_);fill-rule:evenodd;clip-rule:evenodd;fill:#1F2317;}
	.st10{fill-rule:evenodd;clip-rule:evenodd;fill:#2C3320;}
	.st11{clip-path:url(#SVGID_2_);fill-rule:evenodd;clip-rule:evenodd;fill:#2C3320;}
	.st12{fill:#1F2820;}
</style>
<g>
	<defs>
		<rect id="SVGID_1_" y="4.3" width="1920" height="1293.7"/>
	</defs>
	<clipPath id="SVGID_2_">
		<use xlink:href="#SVGID_1_"  style="overflow:visible;"/>
	</clipPath>
	<path class="st0" d="M813.53,175.39c0,0,16.7-5.98,15.42-5.13c-1.28,0.85,8.99,0,8.99,0l13.28,2.52l17.99,2.61l15.42,4.27h14.56
		l16.27,5.56h15.42l17.56-5.56l11.91-3.85l9.93-1.71l12.85,1.28l16.27,2.31h8.99h11.99l11.13,4.1c0,0,9.85,3.85,11.13,3.42
		s13.28,4.7,13.28,4.7l6.42,4.27l4.5,4.49l294.43,56.63l33.83-18.8l14.13-23.76l11.56-2.31c0,0,11.13-4.7,12.42-5.56
		c1.28-0.85,14.56-8.55,14.56-8.55l11.56-2.99c0,0,16.7-1.28,17.99-1.71c1.28-0.43,17.13-1.71,17.13-1.71l17.99-2.14l14.13-2.14
		l15.85,1.28c0,0,8.14,1.71,9.85,1.71s9.85,0,9.85,0l6.85,1.28l4.92,4.91l14.35,1.5l19.27-2.14c0,0,6.42-0.43,9.85-1.71
		s14.99-2.99,16.27-2.99s13.7,0,13.7,0s10.71,0,12.42,0s8.99,0,10.28,0c1.28,0,12.42-3.42,12.42-3.42l17.99-2.14h15.85
		c0,0,11.13,2.56,12.85,2.99s11.56,0.43,11.56,0.43h12.42l9.42-3.42l10.28,4.27h6.42c0,0,10.28-1.71,12.42-2.14
		c2.14-0.43,12.42,0,12.42,0l18.42,2.14l12.85,2.99l12.85,1.71l13.7-2.56h11.13c0,0,8.99,2.99,10.28,3.85s8.99,4.27,8.99,4.27
		l7.71,3.85l11.56,5.13l5.31,5.3l4.32,4.32l-1.29,1080.84H0.76V243.15"/>
	<path class="st1" d="M359.96,184.56c0,0,43.05-15.26,41.85-14.46c-1.21,0.8,21.33-7.63,21.33-7.63l16.9-3.21l16.9-4.42
		c0,0,7.65,0,9.66,0c2.01,0,14.08-3.61,14.08-3.61s14.49-4.42,15.69-4.42c1.21,0,13.68,0,13.68,0l13.68-2.41l11.67-2.01l17.3-2.01
		h15.69l16.1-1.61h12.07h16.5c0,0,8.45-2.41,9.66-2.41c1.21,0,10.46,0,10.46,0h13.68h11.67h11.27l14.49,2.81l13.68,3.61l12.47,8.43
		h9.25c0,0,12.88,0,14.08,0s15.29,2.01,15.29,2.01h9.66c0,0,16.5,6.83,17.7,7.23c1.21,0.4,8.45,3.61,10.06,3.61
		c1.61,0,12.88,3.61,12.88,3.61l13.28,7.63l16.5,6.02l13.68,3.21l171.18,106.29l905.94,36.23v970.81H0.76V236.5"/>
	<path class="st2" d="M359.96,184.56c0,0,43.05-15.26,41.85-14.46c-1.21,0.8,21.33-7.63,21.33-7.63l16.9-3.21l16.9-4.42
		c0,0,7.65,0,9.66,0c2.01,0,14.08-3.61,14.08-3.61s14.49-4.42,15.69-4.42c1.21,0,13.68,0,13.68,0l13.68-2.41l11.67-2.01l17.3-2.01
		h15.69l16.1-1.61h12.07h16.5c0,0,8.45-2.41,9.66-2.41c1.21,0,10.46,0,10.46,0h13.68h11.67h11.27l14.49,2.81l13.68,3.61l12.47,8.43
		h9.25c0,0,12.88,0,14.08,0s15.29,2.01,15.29,2.01h9.66c0,0,16.5,6.83,17.7,7.23c1.21,0.4,8.45,3.61,10.06,3.61
		c1.61,0,12.88,3.61,12.88,3.61l13.28,7.63l16.5,6.02l13.68,3.21l171.18,106.29l905.94,36.23v970.81H0.76V236.5"/>
	<g class="st3">
		<path class="st4" d="M0.76,117h15.05l14.88,7.01l14.47,8.25l19.85,4.13l31.84-2.48l38.86-2.89h13.64l11.99,5.36h9.92l6.62,2.06
			l9.1,3.71l5.79-2.89h5.37l8.27,2.89l3.93-3.92l11.78-0.21l6.62,2.06l13.64-2.06l9.51,4.13l11.16-2.48l7.44,2.48h14.88l7.86,2.06
			h5.79l10.75,5.78l3.72-3.3l2.89,5.36l11.58,2.89l7.44,4.54l13.64,7.01l5.79-3.71l3.72,3.71l8.68,4.54l7.03,2.06
			c0,0,11.16-1.24,13.23-2.48c2.07-1.24,21.09-4.95,21.09-4.95l24.39,2.06h17.78h19.85l19.43-2.06l16.95,3.71l14.06,7.01l15.71,3.3
			l19.02,4.95h24.39l21.91-2.89l19.02-3.3h14.88h15.71l16.12,2.48l12.82,7.01l19.85-2.06l20.67,5.78l28.11-4.54l14.47-1.65h14.88
			l10.75-5.78l10.34-1.65l15.71,3.71l14.47,6.19l6.48-2.19l5.75,2.11l6.35-2.72l7.26,0.6l3.03-3.02l4.54,4.53h6.66l4.84,3.02
			l6.96-6.94l4.84,1.81h4.24l3.63,5.13l8.77,1.37l5.45-2.88l7.26,2.88l10.89,3.76l2.42,4.83h5.14l5.75-2.11
			c0,0,15.43,2.11,15.73,3.32c0.3,1.21,10.29,2.11,10.29,2.11l11.8,3.32l9.68-3.32h7.56h8.77l4.69,4.68l5.6-5.59l7.87,1.51
			l7.26-1.81l6.35-2.72l4.69,4.68l5.45-5.44h9.83l6.05-2.57l6.96,3.02l9.38-3.02l7.26-0.91l11.5-4.23l13.92-3.93l11.2-4.23
			l3.63,3.62l10.89-6.34l8.77-0.6l9.99,2.72l7.26,3.93l14.83,1.51l13.31-1.21l10.29,3.02l13.01,3.02h9.08l8.77-2.11l9.08-2.72
			l4.24,0.91l7.56,4.53l8.17,2.11h10.29l4.24-4.23l6.35,1.81l3.93,3.93l6.96,2.42l4.24-4.23l7.87-2.72c0,0,10.29,1.51,11.2,1.81
			s10.29,0.6,10.29,0.6h10.59l9.99-1.21l8.17-1.81l7.56,2.72c0,0,8.47,1.21,8.47,2.11s6.66,3.32,6.66,3.32l6.96,4.53l10.29,5.13
			l16.04,1.51l5.75,3.02l18.46,6.94l18.15,11.89l22.39,4.11l16.04,4.23l10.89,3.62l13.01,6.64l15.43,2.42h13.92l16.94-3.32h11.2
			l11.8,3.32l13.01-3.02h10.59h14.22l10.89,1.51l8.77-5.44l7.87,6.94l12.71-2.42l7.26-3.32l4.69,4.68l9.23-2.87l7.26,1.81l11.5-1.51
			l5.45-5.44l13.92,1.21c0,0,13.31,1.21,14.22,1.81s9.08-4.53,9.08-4.53l8.47-4.53l12.71-1.21l11.2,3.02l9.38-3.62l10.59-2.72h15.73
			l12.71,3.02l11.2,5.44h10.29l4.99,4.98l9.53,2.57h8.47l2.12,3.62h8.17h6.66l3.63,3.32l6.66,6.64h9.38l8.17,1.81l4.24,2.72V1297.9
			H0.76V117z"/>
	</g>
	<g class="st3">
		<polygon class="st5" points="1377.78,200.02 1369.46,220.96 1348.6,235.9 1317.58,243.38 1291.38,259.92 1288.7,271.66 
			1269.99,282.33 1272.66,296.21 1284.69,308.22 1304.21,318.09 1304.21,334.1 1282.29,342.64 1276.4,352.78 1283.89,360.25 
			1320.26,363.45 1350.74,377.86 1383.36,402.95 1426.68,426.96 1457.7,451.51 1483.9,463.25 1511.71,482.46 1558.24,500.61 
			1572.68,519.82 1604.77,540.1 1591.67,553.16 1611.49,593.45 1684.27,622.11 1732.18,669.93 1810.76,695.74 1920.57,711.04 
			1919.92,268.51 1915.68,265.79 1907.51,263.98 1898.13,263.98 1887.84,254.02 1872.92,253.79 1870.9,250.39 1862.45,250.38 
			1852.89,247.83 1847.77,242.84 1837.61,242.84 1826.42,237.41 1813.71,234.39 1797.98,234.39 1787.39,237.11 1778.01,240.73 
			1766.81,237.71 1754.1,238.92 1736.09,247.52 1708.41,244.96 1702.97,250.39 1691.47,251.9 1684.21,250.09 1674.98,252.96 
			1670.29,248.28 1663.02,251.6 1650.32,254.02 1642.45,247.07 1633.67,252.51 1622.78,251 1597.97,251 1584.96,254.02 
			1573.16,250.69 1561.96,250.69 1545.02,254.02 1531.1,254.02 1515.67,251.6 1502.66,244.96 1491.76,241.33 1475.73,237.11 
			1453.34,232.99 1435.18,221.1 1416.72,214.16 1410.97,211.14 1394.94,209.63 1384.65,204.5 		"/>
	</g>
	<g class="st3">
		<polygon class="st5" points="650.97,402.88 677.05,383.94 696.13,364.02 708.04,343.4 734.11,325.83 756.89,328.65 775.07,323.87 
			784.8,318.13 794.66,296.01 818.47,272.25 835.8,264.1 838.58,239.59 835.92,226.17 842.83,216.62 854.04,212.27 862.94,194.67 
			869.96,187.28 863.3,187.28 858.76,182.76 855.74,185.77 848.47,185.17 842.12,187.89 836.37,185.77 829.89,187.96 815.42,181.77 
			799.71,178.06 789.38,179.71 778.63,185.59 763.74,185.49 749.27,187.14 721.16,191.68 700.48,185.9 680.64,187.96 667.82,180.95 
			651.7,178.47 621.1,178.47 602.08,181.77 580.17,184.66 555.78,184.66 536.76,179.71 521.05,176.41 506.99,169.4 490.04,165.68 
			470.61,167.75 432.98,167.75 414.71,166.2 408.59,165.68 403.93,166.62 399.2,167.49 393.17,168.92 389.6,169.89 385.53,171.32 
			374.27,173.11 329.94,183.76 307.55,194.36 290.97,197.48 277.12,205.02 263.83,225.33 233.88,236.61 210.1,259.97 150.92,298.96 
			168.78,318.77 183.38,340.26 		"/>
	</g>
	<g class="st3">
		<path class="st6" d="M0.76,311.56l46.82,12.83l36.73-6.41l28.47-6.41l24.79,12.83l22.04-12.83l27.55,6.41l26.63,6.41h21.12
			l11.94,8.25l8.26-1.62l9.38-5.44l5.14,7.06l22.39,2.3h11.5l9.38,2.42h15.13c0,0,11.5,8.45,10.59,8.15l8.77,4.83l5.6,5.59
			l6.51,1.96l6.35-6.04l4.24,8.45h7.87l8.77-2.42h8.77l10.89-9.36l9.08,1.81l8.17-3.62l4.54,2.42l4.54,4.53l6.96,2.72l8.77,1.51
			l8.47,0.91h4.84l4.39-4.38l3.48,3.47l5.14,6.34l7.56-1.81l4.08,4.08h9.23l6.66-1.36l3.03,3.02l5.14,3.93h6.96l6.05-5.44l4.54,3.93
			c0,0,3.18,3.17,3.93,3.93s9.08,1.51,9.08,1.51l7.87-5.13l3.63,5.13l8.17,3.32l6.66-6.64l6.66,6.64c0,0,11.8,3.02,12.71,3.32
			c0.91,0.3,9.08-0.3,9.99,0c0.91,0.3,4.84,4.23,4.84,4.23s9.99-3.93,10.89-3.32c0.91,0.6,5.6,5.28,5.6,5.28h13.46l8.17,2.26
			l3.63,6.94l4.84,4.83h9.08l3.63,3.62l4.69,4.68H676l7.26-1.36l3.93,4.53l13.31,5.74l7.56,3.93l10.29-9.36l4.69,4.68l2.87,6.19
			l8.17,1.51l6.96-2.11l6.66,2.11c0,0,4.84-4.83,5.3-5.28c0.45-0.45,5.3,1.36,5.3,1.36l1.21,5.74l6.66,3.02l10.29-1.81h4.84
			l7.87-3.93l4.54,1.21l1.82,4.53h10.89l4.99,4.98l8.02-3.47l8.17,3.47l8.77,2.26l4.54,2.42l6.05,6.04l6.96-3.62l5.14-5.13
			l3.03,3.02v5.74l4.84,4.83l9.38-2.11h6.66l7.26,2.11l6.66-3.32l12.41,1.81h9.68l7.87-1.21l6.35,2.72h6.35l6.05,3.02h4.84
			c0,0,3.63-2.72,5.14-2.72c1.51,0,2.72,2.72,2.72,2.72l3.33,3.62l2.72,5.74h7.26l4.24-6.94l3.03,6.94l6.05-2.42l6.2-6.19l2.87,4.98
			l5.14-0.6l4.84,2.42h4.54l6.66-6.64h3.03l2.42,5.44l6.05,3.02l3.93-8.76h6.35l2.57,2.57l1.66,4.68l1.51,4.53h9.99l6.66-1.51
			l4.54,1.51l5.45-4.23l7.87,2.42h6.05l6.35-3.62l3.63,6.94l7.87,2.11h9.68l6.96,1.51l9.08-3.32l4.54,7.25l8.77,3.62h7.87h6.66h3.93
			l4.69,4.68l6.2,2.26l8.17,1.51l7.56,1.51l4.84,1.51l7.26-1.51l4.84,4.83l13.62,4.83l9.38,3.93l9.68,1.81h7.26h5.75l3.93,4.53
			c0,0,5.75,3.02,6.66,3.62c0.91,0.6,6.96,3.02,7.87,3.32c0.91,0.3,3.93,0.3,4.84,0.3c0.91,0,4.54-4.53,4.54-4.53l5.75,4.53
			l3.03,3.02l8.47,2.72l9.99,2.42h5.75l7.26-1.21l4.84,4.53l5.9,5.89l9.53,4.08l6.35,3.02l6.96-3.93l2.87,2.87l3.18,3.77l6.05,2.42
			l4.84-9.06h3.93l2.12,9.06l6.96,1.81l8.47,4.23l5.14-1.21l5.14,5.13c0,0,2.12,6.04,2.42,7.25c0.3,1.21,9.68,0,9.68,0l8.47-1.81
			l3.03,6.64l9.38,3.93c0,0,8.17,4.23,8.47,5.13c0.3,0.91,7.87,5.44,7.87,5.44l6.96,2.42h7.56l9.38,6.94h39.64l27.08,27.02h30.11
			h35.4h57.19l49.02,27.02h62.63h76.25l35.4,10.87h35.71v639.87H0.76V311.56z"/>
	</g>
	<g class="st3">
		<polygon class="st7" points="1.41,311.58 47.59,324.39 112.78,311.56 137.58,324.39 159.61,311.56 213.79,324.39 234.91,324.39 
			246.85,332.64 255.11,331.01 264.49,325.58 269.64,332.64 292.03,334.94 303.53,334.94 312.91,337.35 328.03,337.35 
			338.63,345.51 347.4,350.34 353,355.92 359.5,357.89 365.86,351.85 370.09,360.3 377.96,360.3 386.74,357.89 395.51,357.89 
			406.4,348.53 415.48,350.34 423.65,346.71 428.19,349.13 432.73,353.66 439.15,356.17 456.93,358.79 461.78,358.79 466.16,354.41 
			501.21,391.72 579.38,420.26 607.9,453.9 589.75,472.02 607.9,496.17 645.07,509.97 686.56,527.22 722.87,535.85 741.88,554.83 
			702.12,573.8 646.8,587.6 598.4,606.58 589.75,635.91 613.09,659.2 646.8,684.21 646.8,716.99 629.51,748.04 651.99,796.35 
			696.94,823.95 730.65,857.59 755.71,882.6 755.71,934.36 792.02,970.59 830.05,1029.24 843.88,1074.1 843.88,1120.68 
			892.28,1151.73 892.28,1210.38 947.6,1297.9 0.76,1297.9 		"/>
	</g>
	<path class="st8" d="M1888.59,503.01l12.83-12.8l18.5-18.46h-8.71l-14.48,5.25l-13.82-6.57l3.95-16.42l13.82-13.79l7.9-14.45
		l5.26-11.16l-5.26-11.82l11.34-22.98l-34.37,17.73l9.21-21.01l-9.21,9.19l-30.6,9.52L1838.18,412l-6.25-13.46l13.49-13.46
		l12.5-6.57v-13.79l12.5-24.29l20.4-29.55l-46.72,31.52l9.87-17.07l8.55-26.92l-51.65,51.54l-9.87-9.85l19.41-19.37l-23.69,2.63
		v-19.7l7.9-17.07v-13.13l17.11-17.07l13.82-29.55l-27.64,7.88l-26.98,6.57l-4.61-13.13v-9.85l-5.92-15.76l-7.9-19.04l-14.48,70.91
		l-7.9-7.88h-14.8v13.46l-8.88,8.86l-19.08-22.32v27.58l12.5,19.7v24.29l-19.74-11.16l-6.58,6.57h-17.77l14.48,21.67l-16.45-9.19
		l-18.42-3.94l-11.84-11.82h-14.48l19.41,23.97l8.88,8.86l11.84,11.82l3.62,22l-12.83-12.8l3.29,14.45l-7.9,18.39l-25.66-5.91
		l15.79,15.76l16.45,9.85v7.88v9.19l15.79,10.51l-8.55,14.45l-17.11-17.07l-5.92-15.1l-11.19-11.16l-17.77-11.16v15.76l-20.4-8.54
		l-18.42-11.16l-3.29,22.32l-16.45-7.88l5.26,13.79l1.97,13.79v9.19l6.58,22.98l15.79,15.76l18.09,14.77l-11.51,11.49l-18.42-18.38
		l-17.11-7.88l8.55,13.13l22.04,22l-15.79,15.76l-14.15-14.12l-29.94-13.46l16.78,16.74l5.92,17.07v14.45l-19.74-7.22l-32.24-7.22
		l20.4,20.35v17.73l9.87,3.94l-5.26,9.85l19.41,10.83l-8.22,8.21l-17.11-6.57l-18.42-18.39l-30.27-3.94v20.35l6.58,15.1l-1.64,15.43
		l7.57,7.55l14.39,15.91l8.87,24.63l-23.52-11.16l-16.84-20.19l-6.58-11.82l-20.07-4.92l14.15,14.12l-2.3,18.06l14.8,14.77
		l-7.9,18.39l-5.92,5.91l-5.59-10.83l-13.49-13.46l-16.45-5.91l7.24,31.52l7.24,17.73l-11.84,10.51v7.88l-3.29,11.16l-11.51,5.25
		v15.76v12.48v7.88l10.86,3.28l10.53,10.51l8.55,17.07l15.46,3.61l11.51,11.49h-11.84l-7.57,7.55l-5.59-5.58h-11.84l-6.58-13.46
		l-2.63-12.8l-7.24,7.22h-9.21h-11.19l-13.16-13.13l-6.91-7.88l-20.07-7.88c0,0,8.55,8.54,8.55,10.51c0,1.97,5.26,5.91,5.26,5.91
		l6.58,6.57l-3.29,11.82l6.58,9.85v5.91h9.87l6.58,6.57l-3.95,11.82l-29.02,37.48l21.52,101.93l-28.69,104.12l10.47,184.06
		l571.34-5.58V652.97l-16.6,28.23l-14.15,14.12l-15.46,15.43l-10.2-14.45v-21.34l-12.83-12.8l21.71-9.19l22.04-11.82V613.9
		l-8.22,8.21h-13.82h-11.84v-11.82l26.98-5.25l21.06-26.92l11.34-40.86l-16.6,16.57l-25,13.13l13.82-24.95l-25.66,5.91l-11.44-11.41
		l23.03-22.98L1888.59,503.01z M1593.79,779.8c-15.06-3.75-29.34-16.72-34.05-20.99c-4.71-4.27-38.76-1.82-36.19-12.11
		c2.57-10.29,37-14.24,5.42-21.69c-31.58-7.46-12.85-18.4-29.74-14.8c-16.89,3.6,2.39-9.55,2.39-9.55s25.57-1.44,37.64,13.27
		c12.07,14.71,19,24.11,36.88,27.07c17.88,2.96,6.39,14.02,19.14,21.16c12.75,7.14,26.94,2.74,32.85,8.18
		C1634.05,775.77,1608.84,783.54,1593.79,779.8z M1668.09,618.25c0,0-5.2-11.42-12.23-12.2c-7.02-0.78-24.2-10.13-22.63-16.36
		c1.56-6.23-7.81-12.46-10.93-11.94c-3.12,0.52-9.89-6.23-9.89-6.23s-9.89,9.35-4.94-4.93c4.94-14.28,4.94-26.74,4.94-26.74
		s-1.56-7.27,7.28-7.27s17.39-2.08,17.39-2.08s9.89-1.26,8.48,8.46c-1.41,9.72-6.09,18.54-1.41,23.22
		c4.68,4.67,14.05,14.02,14.05,14.02s11.45,14.02,9.89,17.65c-1.56,3.63,3.64,12.98,8.85,14.02S1677.97,621.89,1668.09,618.25z
		 M1828.8,474.25c0,0-15.49-6.51-17.12,0c-1.63,6.51,0,21.97-11.82,16.68c-11.82-5.29-11.82-5.29-11.82-5.29s0.41,12.61-5.71,12.2
		c-6.12-0.41-13.86,0-13.86,0s-1.63-25.22,6.52-25.22c8.15,0,22.42,0.41,22.83-7.32c0.41-7.73,16.31-7.73,16.31-7.73l17.94-6.92
		c0,0,4.08,4.07,8.15,8.14C1844.29,462.86,1828.8,474.25,1828.8,474.25z"/>
	<path class="st9" d="M368.2,792.54c0-13.6-13.63-27.21-20.45-47.62c-6.82-6.8,0-13.6,0-20.41c0-6.8,0-6.8,0-13.6
		c0-13.6-13.63-13.6-27.27-20.41c-13.63-6.8-13.63-13.6-20.45-13.6s-27.27,0-34.08,6.8c-6.82,0-20.45,0-34.08,0
		c-6.82,0-6.82,6.8-13.63,6.8c-13.63,0-20.45,0-34.08,6.8c-6.82,0-13.63,0-20.45-6.8c0,0-20.45-20.41-20.45-6.8v-6.8
		c6.82-6.8,20.45,6.8,27.27,13.6c6.82,0,13.63-6.8,13.63-13.6v-6.8c-6.82-13.6-13.63-20.41-27.27-20.41c-6.82,0-20.45,0-20.45,0
		c-6.82-6.8,0-6.8,0-6.8c6.82,0,6.82,0,13.63,0c13.63,0,27.27,0,40.9,13.6c6.82,6.8,13.63,13.6,20.45,6.8
		c6.82-6.8,6.82-6.8,6.82-6.8c6.82,0,13.63,6.8,13.63,6.8c13.63,6.8,13.63,0,20.45-6.8c6.82,0,13.63,6.8,27.27,6.8c0,0,0,0,0-6.8
		c6.82,0,6.82,0,6.82-6.8c0-6.8,13.63-6.8,20.45-6.8c6.82-6.8,0-13.6,6.82-20.41c0-6.8,6.82-6.8,6.82-13.6v-6.8
		c0-6.8,13.63-13.6,13.63-20.41c6.82-6.8-13.63-6.8-20.45-6.8c-6.82,0-13.63,0-20.45-6.8c-6.82-6.8-6.82-6.8-13.63-13.6l6.82-6.8
		c6.82,0,0-13.6,20.45-13.6c13.63,6.8,13.63,13.6,34.08,13.6c0-6.8,6.82-6.8,13.63-6.8l13.63-6.8c0-13.6-27.27-13.6-34.08-13.6
		c-13.63,0-6.82-6.8,0-13.6c6.82,0,6.82,0,6.82-6.8s6.82-13.6,6.82-20.41c6.82-13.6-13.63,0-20.45-6.8c-6.82,0,0-6.8,6.82-13.6
		l6.82-6.8c-6.82-6.8-13.63-6.8-20.45-6.8c0,0-13.63,6.8-20.45,0l6.82-13.6c0-6.8,6.82-13.6-6.82-13.6c-6.82,0-13.63,6.8-20.45,13.6
		c0,6.8-6.82,20.41-13.63,20.41c0,0,0,0-6.82-6.8l-6.82-6.8c-13.63,0-20.45,0-27.27,0c6.82-6.8,6.82-6.8,0-13.6
		c0-6.8,0-13.6,6.82-13.6c6.82,0,20.45,0,20.45-6.8c6.82,0-6.82-6.8-6.82-6.8c-6.82-6.8-13.63-13.6-6.82-13.6c0-6.8,13.63,0,20.45,0
		s20.45,0,20.45-6.8c0,0-6.82-6.8-13.63-6.8c-20.45-6.8,0-13.6,0-20.41c0,0-6.82,0-13.63,0c-6.82,0-6.82,0-13.63-6.8v-6.8
		c-6.82,0-20.45-6.8-27.27,0c-13.63,0-27.27,0-40.9-6.8c0,0,0,0,6.82,0c6.82-6.8,6.82-6.8,6.82-13.6c0-13.6,6.82-13.6,20.45-13.6
		s-6.82-6.8,6.82-13.6c6.82,0,27.27-6.8,27.27-13.6s-6.82-6.8-13.63-13.6c-13.63,0-20.45,0-34.08,6.8c-6.82,0-20.45,6.8-20.45-13.6
		v-6.8c0-6.8-6.82,0-13.63,0c0,0-13.63,6.8-13.63-6.8c6.82-6.8,20.45-27.21,0-27.21c-6.82,6.8-6.82,6.8-13.63,6.8
		c-6.82,0-13.63,6.8-20.45,0c-6.82,0-6.82-6.8-6.82-13.6c0-6.8-6.82,27.21-34.08,13.6c0,0-6.82,0-13.63-6.8
		c-6.82,0-13.63,0-27.27,6.8c0,0,0,0-6.82,0s-6.82-13.6-13.63-20.41c-3.71,0-5.4,4.04-6.17,8.81v120.45
		c12.7,0.23,6.4,6.78,19.8,6.78c0-6.8,6.82-6.8,6.82-6.8c6.82,0,6.82,0,6.82,6.8h13.63c13.63,0,13.63,6.8,20.45,13.6
		c-6.82,0-6.82,0-6.82,0c0-13.6-6.82-13.6-20.45-6.8c-6.82,0-6.82,0-13.63,0c-6.82,0-20.45,6.8-20.45,13.6
		c-3.71,3.7-5.4,3.36-6.17,1.19v222.78c6.99-6.24,20.19-6.29,33.43-6.29c6.82,0,13.63,0,20.45-6.8c0,0,0,0,6.82-6.8
		c0-6.8-6.82-13.6-6.82-20.41c0-6.8,13.63-6.8,20.45-6.8s0-13.6,6.82-13.6c6.82-6.8,13.63,0,20.45-13.6c0,0,0-6.8-6.82-6.8
		c-6.82-6.8-20.45-6.8-27.27-6.8s6.82-6.8,6.82-6.8c6.82-6.8,13.63-6.8,13.63-13.6c6.82-6.8,0-6.8,0-20.41v-6.8
		c0-6.8-13.63,0-27.27,0c-6.82-6.8-6.82-6.8-20.45-13.6c6.82,0,6.82,0,13.63-6.8c0,6.8,6.82,6.8,13.63,13.6s27.27-13.6,34.08-6.8
		c6.82,0,0,13.6,6.82,20.41c0,0,27.27,0,34.08,0c-13.63,6.8-20.45,13.6-27.27,20.41s-6.82,6.8-13.63,13.6c-6.82,6.8,0,6.8,6.82,13.6
		c0,20.41,6.82,27.21,20.45,34.01c0,6.8-6.82,6.8-6.82,6.8c-6.82,0-6.82,0-13.63,0c-6.82-6.8-13.63-6.8-20.45,0c0,6.8,0,6.8,0,13.6
		s-6.82,6.8-13.63,6.8c-13.63,13.6,0,20.41,0,27.21c0,13.6,0,20.41,6.82,27.21c-13.63,0-20.45-6.8-27.27-13.6
		c-6.82-6.8-13.63-13.6-20.45,0c0,6.8,0,13.6-6.82,13.6h-6.82c-6.6,0-13.2-6.32-19.8-6.73v114.11c4.45-5.32,4.84-5.35,19.8-5.35
		c13.63,0,20.45-6.8,27.27-20.41c0,0,0-6.8,6.82-6.8c0,0,0,0,0,6.8c0,0-6.82,6.8-13.63,13.6c-6.82,13.6-20.45,6.8-27.27,13.6
		c0,0-6.82,13.6,0,20.41c0,0,0,6.8,6.82,6.8c6.82-6.8,13.63-13.6,20.45-13.6c0,20.41-6.82,47.62-6.82,68.02c0,0,0,0-6.82,0
		c-6.82,0-6.82-13.6-13.63-20.41c-5.56-5.55-11.13-2.04-12.98,3.14v208.45c4.36-6.64,8.67-13.61,12.98-21.13
		c13.63-20.41,13.63-34.01,27.27-47.62c6.82,6.8,6.82,6.8,13.63,13.6c0,6.8,0,20.41,6.82,34.01c6.82,6.8,13.63,6.8,13.63-6.8
		c0,0,0-13.6,6.82-13.6c0,0,6.82,13.6,6.82,20.41c6.82,0,13.63,13.6,20.45,6.8c6.82-6.8,0-6.8,6.82-6.8c6.82-6.8,6.82-6.8,6.82-6.8
		c6.82,0,20.45,0,20.45,0c6.82-6.8,0-13.6-6.82-20.41c0,0,0-6.8,0-13.6c6.82-6.8,13.63,0,20.45,0c6.82,0,6.82,6.8,13.63,0
		c6.82,0,6.82,0,13.63,0c6.82-6.8,6.82-6.8,6.82-6.8c0-6.8,0-6.8,0-13.6c0,0,6.82-6.8,6.82-13.6c6.82-6.8-6.82-6.8-13.63-13.6
		c-6.82,0-6.82-6.8,0-13.6c0,0,6.82-13.6,0-13.6c-6.82-6.8-13.63,0-20.45-6.8l-6.82-6.8c-6.82-6.8-6.82-6.8-6.82-13.6
		c-6.82-6.8-20.45,0-34.08,0c-6.82,0-6.82-6.8-13.63,0c-13.63,0-13.63,0-20.45,0c-13.63-6.8-13.63,0-27.27,0c-6.82,0-6.82-6.8,0-6.8
		s13.63-6.8,20.45,0c6.82,0,13.63,0,20.45-6.8c0-6.8,6.82-6.8,13.63-13.6s20.45-13.6,27.27-27.21c6.82,6.8,6.82,6.8,13.63,6.8
		c6.82,6.8,6.82,20.41,13.63,27.21c13.63,6.8,20.45-6.8,20.45-6.8c6.82,0,6.82,0,6.82,0c13.63,6.8,6.82,27.21,20.45,27.21
		c6.82,6.8,6.82,0,6.82,0c13.63,0,13.63,20.41,27.27,13.6c6.82,0,6.82,0,13.63-6.8c6.82,0,6.82,0,6.82,0c6.82-6.8,20.45,6.8,27.27,0
		c6.82,0,0-13.6,0-20.41c0,0-6.82-6.8,0-13.6c6.82-6.8,20.45,20.41,27.27,20.41c13.63,0,6.82-20.41,13.63-20.41
		c0,0,6.82,0,13.63,6.8C354.57,812.95,375.02,812.95,368.2,792.54z M129.62,772.14c-6.82,6.8-20.45,13.6-27.27,20.41
		c-34.08,13.6-34.08-27.21-34.08-54.42c6.82,6.8,6.82,6.8,13.63,13.6c6.82,6.8,13.63,13.6,20.45,0c0-6.8,0-6.8,6.82-6.8
		c6.82-6.8,13.63-6.8,20.45-13.6C129.62,744.93,129.62,758.53,129.62,772.14z"/>
	<g class="st3">
		<path class="st10" d="M1424.44,1293.15l-12.02-6c-4.61,0-2.16,7.04-3.48,10.33h21.87
			C1429.18,1294.93,1427.68,1293.15,1424.44,1293.15z"/>
		<path class="st10" d="M1406.42,1233.2c6.01,11.99,24.03,0,36.05,0c6.01,0-6.01,17.99,0,17.99c6.01,0,12.02-6,18.02-6
			c12.02,0,0,17.99,6.01,23.98c6.01,0,6.01,0,12.02-6c18.02-11.99,18.02,11.99,24.03,11.99c0,6,12.02,0,12.02-6
			c6.01,0,6.01,0,12.02,6c0,6,6.01,6,12.02,6c0,5.66,0.02,11.29,0.65,16.32h13.52c-1.17-5.63-2.16-11.46-2.16-16.32
			c12.02,0,6.01-11.99,12.02-17.99c12.02,0,18.02,17.99,24.03,11.99c6.01,0,12.02,0,12.02-6s0-11.99,6.01-17.99
			c6.01,0,12.02,11.99,18.02,11.99l6.01-6c6.01,6,6.01,6,12.02,6c6.01,11.99,6.01,11.99,18.02,6c18.02,0,12.02,11.99,18.02,17.99
			c0,0,6.01,0,12.02,0c-6.01,6-12.02,6-18.02,6c0,0-4.78,0.03-5.79,4.33h101.97c-1.85-0.89-3.95-2.22-6.06-4.33
			c-6.01-6-6.01,0-12.02,0c6.01-6,6.01-11.99,6.01-17.99c6.01,0,12.02,11.99,24.03,11.99c0,3.44,2.01,6.88,4.83,10.33h21.8
			c-2.93-7.49-4.03-13.17-8.61-22.32c6.01,0,6.01-6,6.01-11.99c0-11.99,18.02-6,18.02-11.99c6.01,0,0-17.99,0-17.99
			c12.02,0,24.03,0,30.04,0c0,0,6.01,0,6.01,6c-6.01,0-12.02,6-18.02,6c-6.01,6-6.01,6-6.01,11.99c0,6-6.01,11.99-6.01,17.99
			s6.01,6,12.02,11.99c5.45,0,5.9,4.94,1.47,10.33h67.76c4.3-1.77,7.03-4.33,14.88-4.33c0-6,6.01,0,6.01,0
			c1.48,1.47,2.96,2.95,4.52,4.33h345.47c-4.82-6.87-10.47-10.33-19.56-10.33c-6.01,0-18.02,0-18.02,0c-6.01-6,0-6,0-6
			c6.01,0,6.01,0,12.02,0c12.02,0,24.03,0,36.05,11.99c1.51,1.51,3.02,3.01,4.53,4.33h15.16c4.3-4.3,4.34-4.33,4.34-4.33
			c3.94,0,7.84,2.56,10.08,4.33h16.28c1.04-1.32,2.17-2.82,3.68-4.33c3.94,0,7.91,2.56,13.53,4.33h10.5c0-0.89,0-2.22,0-4.33
			c6.01,0,6.01,0,6.01-6c0-6,12.02-6,18.02-6c6.01-6,0-11.99,6.01-17.99c0-6,6.01-6,6.01-11.99v-6c0-6,12.02-11.99,12.02-17.99
			c6.01-6-12.02-6-18.02-6c-6.01,0-12.02,0-18.02-6c-6.01-6-6.01-6-12.02-11.99l6.01-6c6.01,0,0-11.99,18.02-11.99
			c12.02,6,12.02,11.99,30.04,11.99c0-6,6.01-6,12.02-6l12.02-6c0-11.99-24.03-11.99-30.04-11.99c-12.02,0-6.01-6,0-11.99
			c6.01,0,6.01,0,6.01-6s6.01-11.99,6.01-17.99c6.01-11.99-12.02,0-18.02-6c-6.01,0,0-6,6.01-11.99l6.01-6c-6.01-6-12.02-6-18.02-6
			c0,0-12.02,6-18.02,0l6.01-11.99c0-6,6.01-11.99-6.01-11.99c-6.01,0-12.02,6-18.02,11.99c0,6-6.01,17.99-12.02,17.99
			c0,0,0,0-6.01-6l-6.01-6c-12.02,0-18.02,0-24.03,0c6.01-6,6.01-6,0-11.99c0-6,0-11.99,6.01-11.99s18.02,0,18.02-6
			c6.01,0-6.01-6-6.01-6c-6.01-6-12.02-11.99-6.01-11.99c0-6,12.02,0,18.02,0s18.02,0,18.02-6c0,0-6.01-6-12.02-6
			c-18.02-6,0-11.99,0-17.99c0,0-6.01,0-12.02,0s-6.01,0-12.02-6v-6c-6.01,0-18.02-6-24.03,0c-12.02,0-24.03,0-36.05-6
			c0,0,0,0,6.01,0c6.01-6,6.01-6,6.01-11.99c0-11.99,6.01-11.99,18.02-11.99c12.02,0-6.01-6,6.01-11.99c6.01,0,24.03-6,24.03-11.99
			c0-6-6.01-6-12.02-11.99c-12.02,0-18.02,0-30.04,6c-6.01,0-18.02,6-18.02-11.99v-6c0-6-6.01,0-12.02,0c0,0-12.02,6-12.02-6
			c6.01-6,18.02-23.98,0-23.98c-6.01,6-6.01,6-12.02,6s-12.02,6-18.02,0c-6.01,0-6.01-6-6.01-11.99c0-6-6.01,23.98-30.04,11.99
			c0,0-6.01,0-12.02-6c-6.01,0-12.02,0-24.03,6c0,0,0,0-6.01,0s-6.01-11.99-12.02-17.99c-6.01,0-6.01,11.99-6.01,17.99
			c0,6,0,17.99-6.01,29.98c-6.01,0-6.01,6-12.02,11.99c-6.01,0-6.01,0-6.01-6c0,0,12.02-17.99,6.01-23.98c0-6-6.01-6-12.02-6
			s-6.01,0-6.01,0c-6.01-6-12.02-11.99-18.02-6c-6.01,6-6.01,11.99-18.02,17.99c-12.02,6-18.02,6-30.04,0c6.01-6,6.01-6,6.01-6
			c6.01-6,0-11.99,0-17.99c-6.01-6,0-6,6.01-6c12.02,6,12.02,0,24.03-6c6.01,0,24.03-11.99,6.01-17.99c0,0,0,0-6.01,0
			c-12.02-6-12.02-6-12.02-17.99c-12.02-23.98-24.03-11.99-42.05,0c-12.02,6-12.02,6-24.03-6c-6.01-6-24.03-17.99-36.05-17.99
			c-6.01,6-6.01,6-12.02,11.99c-6.01,6-18.02,0-24.03,0c-12.02-6-42.05-17.99-48.06-6s0,17.99,0,23.98l-6.01,6
			c-6.01,6-12.02-11.99-18.02-17.99c-6.01,0-6.01,6-12.02,11.99c0,0,0,6-6.01,6c-6.01,0-12.02,0-18.02,6h-6.01
			c-6.01,11.99,12.02,17.99,18.02,23.98c0,6,0,6,6.01,6c0,6,6.01,6,6.01,11.99c12.02,6,24.03,0,30.04,0s-12.02,11.99-6.01,17.99
			c0,6,12.02,11.99,18.02,11.99c0,6,6.01,0,12.02-6c0,0,6.01-11.99,12.02-6c6.01,0,0,11.99,0,17.99c0,6,6.01,6,6.01,6
			c12.02,0,24.03,6,36.05,6c0,6,0,6,0,11.99c6.01,0,6.01,6,12.02,6c12.02,0,18.02-6,24.03,6c6.01,0,6.01,6,6.01,11.99
			c6.01,6,18.02,6,24.03,6c0,6,0,6,0,6l-18.02-6c-12.02,0-12.02-6-18.02-11.99c0-6-6.01-6-12.02-6c-6.01,6-12.02,6-24.03,6
			c-6.01-6-18.02-11.99-24.03-17.99c0,0-12.02-11.99-12.02-6c-6.01,0-6.01,6-6.01,6c0,6,6.01,11.99,0,11.99l-18.02,6v-6
			c0-11.99,0-23.98-6.01-29.98c-6.01-11.99-12.02-11.99-24.03-17.99c-6.01-6-12.02-11.99-18.02-11.99c-6.01,0-6.01,0-12.02,0
			c0-6,0-11.99-6.01-17.99c-6.01-17.99-12.02,0-18.02,0s-12.02-6-18.02-6c-24.03-17.99-18.02,0-30.04,11.99c-6.01,6-18.02,6-30.04,0
			c-12.02,0-42.05-17.99-54.07-6c0,6,0,11.99,0,17.99c-6.01,17.99-42.05,0-48.06,17.99c-6.01,11.99,0,11.99,0,17.99
			c-6.01,6-18.02,6-18.02,11.99c6.01,6,24.03,6,30.04,11.99c6.01,0,6.01,0,6.01,6c6.01,6,6.01,6,12.02,11.99
			c-12.02,0-18.02,0-24.03,0c-6.01,0-12.02-6-18.02-6c-12.02,0-12.02-17.99-18.02-17.99c-12.02-6-12.02,11.99-18.02,11.99
			c-6.01,0-6.01,0-12.02,6c0,0,0,6-6.01,6c-6.01,6-18.02-17.99-30.04-11.99c-6.01,6,6.01,17.99,6.01,23.98c0,0,0,6-6.01,6
			c-12.02,0-24.03,0-24.03,11.99c0,6,0,6,0,6v6c0,6-6.01,6-6.01,6c-6.01,0-24.03,6-18.02,11.99c0,6,12.02,6,18.02,6
			c6.01,6,12.02,6,6.01,11.99c-6.01,11.99-12.02,29.98,0,35.97c12.02,6,24.03,6,36.05,0c6.01,0,6.01,0,12.02,0
			c12.02,11.99,18.02,0,24.03,0c6.01-6,6.01-6,12.02,0c6.01,6,12.02,11.99,30.04,0c18.02-6,12.02-6,30.04-6c0,6,0,11.99,6.01,17.99
			c0,11.99,6.01,11.99,12.02,11.99s18.02,0,24.03,6c0,6-18.02,11.99-18.02,17.99c0,0,0,0,0,6c0,0,6.01,0,12.02,0s12.02,0,12.02-6
			c6.01-6,12.02-11.99,12.02-17.99c6.01,0,12.02,6,12.02,11.99v6c0,6,12.02,6,12.02,6c6.01,0,6.01-6,12.02-6
			c0-6,6.01-11.99,12.02-11.99c0,0,0,6,6.01,11.99c0,6,0,6,6.01,6c6.01,0,24.03-6,24.03-6c0,6,0,17.99,0,23.98c0,0-6.01-6-6.01,0
			c-6.01,0-12.02,17.99-18.02,6c-6.01-6,0-11.99-12.02-17.99c0,0,0,0-6.01,0c0,0-6.01,0-6.01,6s0,11.99-6.01,11.99
			c-6.01,0-6.01-11.99-12.02-11.99c-6.01-6-12.02-6-18.02,0c-6.01,6,0,11.99-6.01,23.98c0,6-6.01,0-12.02,0c0-6-6.01-11.99-12.02-6
			c-6.01,0-6.01,11.99-12.02,11.99c0,6-6.01,6-6.01,0c-6.01,0,0-17.99,0-17.99c0-6,0-11.99-6.01-11.99c-6.01-6-12.02-11.99-18.02-6
			c0,0-18.02,17.99-12.02,6c0-6,6.01-11.99,6.01-11.99c0-6,0-6,0-11.99c-6.01,0-12.02,6-18.02,6l-12.02,11.99
			c0-6,0-17.99,6.01-17.99c0-6,0-11.99-6.01-11.99c-6.01-6-6.01-6-12.02,0c-6.01,0-12.02,6-12.02,11.99
			c-6.01,6-6.01,17.99-12.02,17.99c-6.01,6-6.01-11.99-18.02-17.99c0,0-6.01,0-12.02,0c-12.02,6-18.02-11.99-36.05-17.99
			c-12.02,0-18.02,17.99-36.05,11.99c-12.02,0-30.04-6-30.04,17.99c0,11.99,0,17.99,0,23.98
			C1412.42,1209.22,1394.4,1221.21,1406.42,1233.2z M2115.34,999.38c6.01,0,6.01,0,6.01,6c12.02,0,6.01,6,18.02,6c0-6,6.01-6,6.01-6
			c6.01,0,6.01,0,6.01,6h12.02c12.02,0,12.02,6,18.02,11.99c-6.01,0-6.01,0-6.01,0c0-11.99-6.01-11.99-18.02-6
			c-6.01,0-6.01,0-12.02,0s-18.02,6-18.02,11.99c-6.01,6-6.01,0-6.01-6c0,0,6.01-6,0-11.99c0,0-6.01-6-12.02-6
			C2115.34,1005.38,2115.34,999.38,2115.34,999.38z M2073.28,1245.19c6.01,6,18.02-6,18.02-6c6.01-6,12.02,0,18.02,0
			c6.01-6,6.01-6,12.02-11.99s18.02-6,30.04-6c6.01,0,12.02,0,18.02-6c0,0,0,0,6.01-6c0-6-6.01-11.99-6.01-17.99s12.02-6,18.02-6
			s0-11.99,6.01-11.99c6.01-6,12.02,0,18.02-11.99c0,0,0-6-6.01-6c-6.01-6-18.02-6-24.03-6c-6.01,0,6.01-6,6.01-6
			c6.01-6,12.02-6,12.02-11.99c6.01-6,0-6,0-17.99v-6c0-6-12.02,0-24.03,0c-6.01-6-6.01-6-18.02-11.99c6.01,0,6.01,0,12.02-6
			c0,6,6.01,6,12.02,11.99c6.01,6,24.03-11.99,30.04-6c6.01,0,0,11.99,6.01,17.99c0,0,24.03,0,30.04,0
			c-12.02,6-18.02,11.99-24.03,17.99c-6.01,6-6.01,6-12.02,11.99c-6.01,6,0,6,6.01,11.99c0,17.99,6.01,23.98,18.02,29.98
			c0,6-6.01,6-6.01,6c-6.01,0-6.01,0-12.02,0c-6.01-6-12.02-6-18.02,0c0,6,0,6,0,11.99c0,6-6.01,6-12.02,6
			c-12.02,11.99,0,17.99,0,23.98c0,11.99,0,17.99,6.01,23.98c-12.02,0-18.02-6-24.03-11.99s-12.02-11.99-18.02,0
			c0,6,0,11.99-6.01,11.99h-6.01c-6.01,0-12.02-6-18.02-6c-6.01-6-6.01,6-6.01,11.99c-6.01,11.99-6.01,11.99-12.02,11.99l-6.01,6
			c0,0,0-6-6.01-11.99s-12.02,0-12.02,6c-12.02,6-12.02,6-18.02,6c-12.02-6-18.02,6-24.03,6s-18.02-6-18.02-11.99
			c-6.01,0-12.02,0-18.02,0c-6.01,0-18.02,0-24.03,0c-6.01,0-6.01,0-6.01-6c6.01,0,18.02,0,18.02,0c6.01,0,18.02-6,24.03,0
			c6.01,0,12.02,6,18.02,6c6.01,0,12.02-6,12.02-6c6.01-6,12.02-6,12.02-6c6.01-6,6.01-6,6.01-11.99c0,0,0,0,0-6
			c-6.01,0-6.01-6-6.01-6c0-17.99-12.02-11.99-18.02-17.99s-6.01-6-12.02-11.99c6.01,6,12.02,6,18.02,6c6.01,0,18.02,6,24.03,6
			S2073.28,1239.2,2073.28,1245.19z M1965.14,1197.23c0-6,0-17.99,0-23.98c6.01,11.99,18.02,17.99,30.04,29.98
			C1989.17,1197.23,1977.16,1197.23,1965.14,1197.23z M1754.87,1077.32c-6.01,6-12.02,23.98-18.02,6c0-6,0-11.99-6.01-11.99
			s-6.01,0-12.02,0c-6.01-6-12.02-6-24.03-6c0-6,0-11.99-6.01-11.99c-12.02,0-12.02-6-18.02-11.99c-6.01,0-12.02,0-18.02,6
			c-6.01,0-18.02,0-24.03,0c0-6-12.02-6-6.01-6c0-6,18.02,6,30.04,0c6.01-6,6.01-6,12.02-11.99c12.02,0,12.02,6,18.02,6l6.01-6
			c0-6,0-17.99,6.01-11.99c6.01,6,6.01,17.99,12.02,23.98c6.01,11.99,12.02,0,18.02-6c0-6,0-11.99,6.01-11.99
			c6.01,6,0,17.99,6.01,23.98c6.01,0,6.01,0,12.02,0c6.01,0,6.01-23.98,12.02-23.98c12.02,0,12.02,17.99,18.02,17.99
			c0,0,12.02,0,18.02,0c0,11.99,0,17.99,6.01,23.98c6.01,6,6.01,11.99,12.02,17.99l6.01,6c6.01,6,12.02-6,18.02-6
			c12.02,0,18.02,6,24.03,11.99c6.01,0,24.03-6,30.04-11.99c6.01,0,18.02-6,24.03-6s6.01,0,6.01,0s-18.02,11.99-24.03,11.99
			c-6.01,6-24.03,11.99-36.05,11.99c-6.01,0-12.02-6-12.02,0c-6.01,0-6.01,0-6.01,6c0,0,6.01,6,12.02,6c0,6,6.01,11.99,6.01,17.99
			c6.01,6,12.02-6,18.02-11.99c6.01-6,6.01-6,18.02-6h12.02c0,0,0,0,6.01,6c0,0,0,6,6.01,6c12.02-6,12.02-11.99,24.03-17.99
			c0,0,6.01,0,12.02,0c12.02-6,0-17.99,6.01-23.98c6.01-6,18.02,11.99,24.03,11.99s6.01-6,12.02-6c6.01,0,6.01,0,6.01,0
			c12.02,0,18.02,6,18.02,11.99c6.01,6,12.02,11.99,18.02,11.99c6.01,0,18.02,0,18.02,6c-12.02,0-24.03,0-30.04-11.99
			c-6.01,0-12.02-11.99-18.02-11.99l-12.02,6c-6.01,0-6.01,6-6.01,11.99c0,17.99-6.01,6-18.02,6c-6.01-6-12.02,0-18.02,0
			c0,0-6.01,0-6.01,6c0,6,6.01,6,12.02,6c0,0,18.02,6,18.02,11.99c0,6-18.02,6-24.03,11.99c0,6,0,6,0,6c-6.01-6,6.01-11.99-6.01-6
			c-12.02,0-18.02,6-18.02-11.99c0,0,6.01-11.99,0-11.99c0-6-12.02,0-12.02,0c-6.01,0-6.01,17.99-12.02,17.99
			c-6.01,0-6.01-17.99-18.02-17.99c-6.01,0-12.02,6-12.02,11.99c-18.02,11.99-24.03-6-36.05-11.99c-6.01-6-18.02,0-24.03,0
			c0,0,0-6,0-11.99c0-11.99-18.02-6-24.03-11.99c-6.01-6,12.02-11.99,12.02-17.99c0-6-6.01-6-6.01-11.99c-6.01-6-12.02,0-18.02,0
			c0,6-6.01,6-6.01,6c-6.01,0,0-6,0-11.99s-6.01-6-6.01-6C1766.88,1065.33,1760.88,1071.33,1754.87,1077.32z"/>
		<path class="st10" d="M1392.72,1297.48c-5.4-5.34-10.34-9.77-10.34-4.33c-0.77,1.53-1.34,2.97-1.75,4.33H1392.72z"/>
	</g>
	<path class="st11" d="M871.72,1297.48h414.54c12.02,0,24.03,0,30.04,0h203.65c-2.51-10.57-12.2-6.8-17.41-11.99
		c-6.01-6-6.01-6-12.02-11.99c6.01,6,12.02,6,18.02,6c6.01,0,18.02,6,24.03,6c3.43,0,4.9,5.85,5.53,11.99h42.53c1.5-1.5,3-3,6.01-6
		c6.01-6,18.02-6,30.04-6c6.01,0,12.02,0,18.02-6c0,0,0,0,6.01-6c0-6-6.01-11.99-6.01-17.99c0-6,12.02-6,18.02-6
		c6.01,0,0-11.99,6.01-11.99c6.01-6,12.02,0,18.02-11.99c0,0,0-6-6.01-6c-6.01-6-18.02-6-24.03-6c-6.01,0,6.01-6,6.01-6
		c6.01-6,12.02-6,12.02-11.99c6.01-6,0-6,0-17.99v-6c0-6-12.02,0-24.03,0c-6.01-6-6.01-6-18.02-11.99c6.01,0,6.01,0,12.02-6
		c0,6,6.01,6,12.02,11.99c6.01,6,24.03-11.99,30.04-6c6.01,0,0,11.99,6.01,17.99c0,0,24.03,0,30.04,0
		c-12.02,6-18.02,11.99-24.03,17.99s-6.01,6-12.02,11.99c-6.01,6,0,6,6.01,11.99c0,17.99,6.01,23.98,18.02,29.98c0,6-6.01,6-6.01,6
		c-6.01,0-6.01,0-12.02,0c-6.01-6-12.02-6-18.02,0c0,6,0,6,0,11.99s-6.01,6-12.02,6c-12.02,11.99,0,17.99,0,23.98h225.17
		c1.78-2,3.12-4,3.12-6c6.01-6-12.02-6-18.02-6c-6.01,0-12.02,0-18.02-6c-6.01-6-6.01-6-12.02-11.99l6.01-6
		c6.01,0,0-11.99,18.02-11.99c12.02,6,12.02,11.99,30.04,11.99c0-6,6.01-6,12.02-6l12.02-6c0-11.99-24.03-11.99-30.04-11.99
		c-12.02,0-6.01-6,0-11.99c6.01,0,6.01,0,6.01-6s6.01-11.99,6.01-17.99c6.01-11.99-12.02,0-18.02-6c-6.01,0,0-6,6.01-11.99l6.01-6
		c-6.01-6-12.02-6-18.02-6c0,0-12.02,6-18.02,0l6.01-11.99c0-6,6.01-11.99-6.01-11.99c-6.01,0-12.02,6-18.02,11.99
		c0,6-6.01,17.99-12.02,17.99c0,0,0,0-6.01-6l-6.01-6c-12.02,0-18.02,0-24.03,0c6.01-6,6.01-6,0-11.99c0-6,0-11.99,6.01-11.99
		c6.01,0,18.02,0,18.02-6c6.01,0-6.01-6-6.01-6c-6.01-6-12.02-11.99-6.01-11.99c0-6,12.02,0,18.02,0c6.01,0,18.02,0,18.02-6
		c0,0-6.01-6-12.02-6c-18.02-6,0-11.99,0-17.99c0,0-6.01,0-12.02,0c-6.01,0-6.01,0-12.02-6v-6c-6.01,0-18.02-6-24.03,0
		c-12.02,0-24.03,0-36.05-6c0,0,0,0,6.01,0c6.01-6,6.01-6,6.01-11.99c0-11.99,6.01-11.99,18.02-11.99c12.02,0-6.01-6,6.01-11.99
		c6.01,0,24.03-6,24.03-11.99s-6.01-6-12.02-11.99c-12.02,0-18.02,0-30.04,6c-6.01,0-18.02,6-18.02-11.99v-6c0-6-6.01,0-12.02,0
		c0,0-12.02,6-12.02-6c6.01-6,18.02-23.98,0-23.98c-6.01,6-6.01,6-12.02,6c-6.01,0-12.02,6-18.02,0c-6.01,0-6.01-6-6.01-11.99
		c0-6-6.01,23.98-30.04,11.99c0,0-6.01,0-12.02-6c-6.01,0-12.02,0-24.03,6c0,0,0,0-6.01,0c-6.01,0-6.01-11.99-12.02-17.99
		c-6.01,0-6.01,11.99-6.01,17.99c0,6,0,17.99-6.01,29.98c-6.01,0-6.01,6-12.02,11.99c-6.01,0-6.01,0-6.01-6
		c0,0,12.02-17.99,6.01-23.98c0-6-6.01-6-12.02-6c-6.01,0-6.01,0-6.01,0c-6.01-6-12.02-11.99-18.02-6
		c-6.01,6-6.01,11.99-18.02,17.99c-12.02,6-18.02,6-30.04,0c6.01-6,6.01-6,6.01-6c6.01-6,0-11.99,0-17.99c-6.01-6,0-6,6.01-6
		c12.02,6,12.02,0,24.03-6c6.01,0,24.03-11.99,6.01-17.99c0,0,0,0-6.01,0c-12.02-6-12.02-6-12.02-17.99
		c-12.02-23.98-24.03-11.99-42.05,0c-12.02,6-12.02,6-24.03-6c-6.01-6-24.03-17.99-36.05-17.99c-6.01,6-6.01,6-12.02,11.99
		c-6.01,6-18.02,0-24.03,0c-12.02-6-42.05-17.99-48.06-6c-6.01,11.99,0,17.99,0,23.98l-6.01,6c-6.01,6-12.02-11.99-18.02-17.99
		c-6.01,0-6.01,6-12.02,11.99c0,0,0,6-6.01,6c-6.01,0-12.02,0-18.02,6h-6.01c-6.01,11.99,12.02,17.99,18.02,23.98c0,6,0,6,6.01,6
		c0,6,6.01,6,6.01,11.99c12.02,6,24.03,0,30.04,0s-12.02,11.99-6.01,17.99c0,6,12.02,11.99,18.02,11.99c0,6,6.01,0,12.02-6
		c0,0,6.01-11.99,12.02-6c6.01,0,0,11.99,0,17.99c0,6,6.01,6,6.01,6c12.02,0,24.03,6,36.05,6c0,6,0,6,0,11.99c6.01,0,6.01,6,12.02,6
		c12.02,0,18.02-6,24.03,6c6.01,0,6.01,6,6.01,11.99c6.01,6,18.02,6,24.03,6c0,6,0,6,0,6l-18.02-6c-12.02,0-12.02-6-18.02-11.99
		c0-6-6.01-6-12.02-6c-6.01,6-12.02,6-24.03,6c-6.01-6-18.02-11.99-24.03-17.99c0,0-12.02-11.99-12.02-6c-6.01,0-6.01,6-6.01,6
		c0,6,6.01,11.99,0,11.99l-18.02,6v-6c0-11.99,0-23.98-6.01-29.98c-6.01-11.99-12.02-11.99-24.03-17.99
		c-6.01-6-12.02-11.99-18.02-11.99c-6.01,0-6.01,0-12.02,0c0-6,0-11.99-6.01-17.99c-6.01-17.99-12.02,0-18.02,0s-12.02-6-18.02-6
		c-24.03-17.99-18.02,0-30.04,11.99c-6.01,6-18.02,6-30.04,0c-12.02,0-42.05-17.99-54.07-6c0,6,0,11.99,0,17.99
		c-6.01,17.99-42.05,0-48.06,17.99c-6.01,11.99,0,11.99,0,17.99c-6.01,6-18.02,6-18.02,11.99c6.01,6,24.03,6,30.04,11.99
		c6.01,0,6.01,0,6.01,6c6.01,6,6.01,6,12.02,11.99c-12.02,0-18.02,0-24.03,0c-6.01,0-12.02-6-18.02-6
		c-12.02,0-12.02-17.99-18.02-17.99c-12.02-6-12.02,11.99-18.02,11.99c-6.01,0-6.01,0-12.02,6c0,0,0,6-6.01,6
		c-6.01,6-18.02-17.99-30.04-11.99c-6.01,6,6.01,17.99,6.01,23.98c0,0,0,6-6.01,6c-12.02,0-24.03,0-24.03,11.99c0,6,0,6,0,6v6
		c0,6-6.01,6-6.01,6c-6.01,0-24.03,6-18.02,11.99c0,6,12.02,6,18.02,6c6.01,6,12.02,6,6.01,11.99c-6.01,11.99-12.02,29.98,0,35.97
		c12.02,6,24.03,6,36.05,0c6.01,0,6.01,0,12.02,0c12.02,11.99,18.02,0,24.03,0c6.01-6,6.01-6,12.02,0c6.01,6,12.02,11.99,30.04,0
		c18.02-6,12.02-6,30.04-6c0,6,0,11.99,6.01,17.99c0,11.99,6.01,11.99,12.02,11.99c6.01,0,18.02,0,24.03,6
		c0,6-18.02,11.99-18.02,17.99c0,0,0,0,0,6c0,0,6.01,0,12.02,0s12.02,0,12.02-6c6.01-6,12.02-11.99,12.02-17.99
		c6.01,0,12.02,6,12.02,11.99v6c0,6,12.02,6,12.02,6c6.01,0,6.01-6,12.02-6c0-6,6.01-11.99,12.02-11.99c0,0,0,6,6.01,11.99
		c0,6,0,6,6.01,6c6.01,0,24.03-6,24.03-6c0,6,0,17.99,0,23.98c0,0-6.01-6-6.01,0c-6.01,0-12.02,17.99-18.02,6
		c-6.01-6,0-11.99-12.02-17.99c0,0,0,0-6.01,0c0,0-6.01,0-6.01,6c0,6,0,11.99-6.01,11.99s-6.01-11.99-12.02-11.99
		c-6.01-6-12.02-6-18.02,0c-6.01,6,0,11.99-6.01,23.98c0,6-6.01,0-12.02,0c0-6-6.01-11.99-12.02-6c-6.01,0-6.01,11.99-12.02,11.99
		c0,6-6.01,6-6.01,0c-6.01,0,0-17.99,0-17.99c0-6,0-11.99-6.01-11.99c-6.01-6-12.02-11.99-18.02-6c0,0-18.02,17.99-12.02,6
		c0-6,6.01-11.99,6.01-11.99c0-6,0-6,0-11.99c-6.01,0-12.02,6-18.02,6l-12.02,11.99c0-6,0-17.99,6.01-17.99c0-6,0-11.99-6.01-11.99
		c-6.01-6-6.01-6-12.02,0c-6.01,0-12.02,6-12.02,11.99c-6.01,6-6.01,17.99-12.02,17.99c-6.01,6-6.01-11.99-18.02-17.99
		c0,0-6.01,0-12.02,0c-12.02,6-18.02-11.99-36.05-17.99c-12.02,0-18.02,17.99-36.05,11.99c-12.02,0-30.04-6-30.04,17.99
		c0,11.99,0,17.99,0,23.98C877.73,1273.5,859.71,1285.49,871.72,1297.48z M1580.64,1063.67c6.01,0,6.01,0,6.01,6
		c12.02,0,6.01,6,18.02,6c0-6,6.01-6,6.01-6c6.01,0,6.01,0,6.01,6h12.02c12.02,0,12.02,6,18.02,11.99c-6.01,0-6.01,0-6.01,0
		c0-11.99-6.01-11.99-18.02-6c-6.01,0-6.01,0-12.02,0c-6.01,0-18.02,6-18.02,11.99c-6.01,6-6.01,0-6.01-6c0,0,6.01-6,0-11.99
		c0,0-6.01-6-12.02-6C1580.64,1069.66,1580.64,1063.67,1580.64,1063.67z M1430.45,1261.51c0-6,0-17.99,0-23.98
		c6.01,11.99,18.02,17.99,30.04,29.98C1454.48,1261.51,1442.46,1261.51,1430.45,1261.51z M1220.17,1141.61
		c-6.01,6-12.02,23.98-18.02,6c0-6,0-11.99-6.01-11.99c-6.01,0-6.01,0-12.02,0c-6.01-6-12.02-6-24.03-6c0-6,0-11.99-6.01-11.99
		c-12.02,0-12.02-6-18.02-11.99c-6.01,0-12.02,0-18.02,6c-6.01,0-18.02,0-24.03,0c0-6-12.02-6-6.01-6c0-6,18.02,6,30.04,0
		c6.01-6,6.01-6,12.02-11.99c12.02,0,12.02,6,18.02,6l6.01-6c0-6,0-17.99,6.01-11.99c6.01,6,6.01,17.99,12.02,23.98
		c6.01,11.99,12.02,0,18.02-6c0-6,0-11.99,6.01-11.99c6.01,6,0,17.99,6.01,23.98c6.01,0,6.01,0,12.02,0s6.01-23.98,12.02-23.98
		c12.02,0,12.02,17.99,18.02,17.99c0,0,12.02,0,18.02,0c0,11.99,0,17.99,6.01,23.98s6.01,11.99,12.02,17.99l6.01,6
		c6.01,6,12.02-6,18.02-6c12.02,0,18.02,6,24.03,11.99c6.01,0,24.03-6,30.04-11.99c6.01,0,18.02-6,24.03-6s6.01,0,6.01,0
		s-18.02,11.99-24.03,11.99c-6.01,6-24.03,11.99-36.05,11.99c-6.01,0-12.02-6-12.02,0c-6.01,0-6.01,0-6.01,6c0,0,6.01,6,12.02,6
		c0,6,6.01,11.99,6.01,17.99c6.01,6,12.02-6,18.02-11.99c6.01-6,6.01-6,18.02-6h12.02c0,0,0,0,6.01,6c0,0,0,6,6.01,6
		c12.02-6,12.02-11.99,24.03-17.99c0,0,6.01,0,12.02,0c12.02-6,0-17.99,6.01-23.98c6.01-6,18.02,11.99,24.03,11.99
		c6.01,0,6.01-6,12.02-6c6.01,0,6.01,0,6.01,0c12.02,0,18.02,6,18.02,11.99c6.01,6,12.02,11.99,18.02,11.99c6.01,0,18.02,0,18.02,6
		c-12.02,0-24.03,0-30.04-11.99c-6.01,0-12.02-11.99-18.02-11.99l-12.02,6c-6.01,0-6.01,6-6.01,11.99c0,17.99-6.01,6-18.02,6
		c-6.01-6-12.02,0-18.02,0c0,0-6.01,0-6.01,6c0,6,6.01,6,12.02,6c0,0,18.02,6,18.02,11.99c0,6-18.02,6-24.03,11.99c0,6,0,6,0,6
		c-6.01-6,6.01-11.99-6.01-6c-12.02,0-18.02,6-18.02-11.99c0,0,6.01-11.99,0-11.99c0-6-12.02,0-12.02,0
		c-6.01,0-6.01,17.99-12.02,17.99s-6.01-17.99-18.02-17.99c-6.01,0-12.02,6-12.02,11.99c-18.02,11.99-24.03-6-36.05-11.99
		c-6.01-6-18.02,0-24.03,0c0,0,0-6,0-11.99c0-11.99-18.02-6-24.03-11.99c-6.01-6,12.02-11.99,12.02-17.99s-6.01-6-6.01-11.99
		c-6.01-6-12.02,0-18.02,0c0,6-6.01,6-6.01,6c-6.01,0,0-6,0-11.99s-6.01-6-6.01-6C1232.19,1129.62,1226.18,1135.61,1220.17,1141.61z
		"/>
	<g class="st3">
		<path class="st10" d="M507.82,1297.48h11.66C515.6,1294.97,511.71,1294.97,507.82,1297.48z"/>
		<path class="st10" d="M552.7,1294.03c0,0,0,0-6.01,0c0,0-4.07,0.05-5.49,3.45h16.63C556.64,1296.33,555.01,1295.18,552.7,1294.03z
			"/>
		<path class="st10" d="M294.37,1186.12c6.01,6,12.02,6,6.01,11.99c-6.01,11.99-12.02,29.98,0,35.97c12.02,6,24.03,6,36.05,0
			c6.01,0,6.01,0,12.02,0c12.02,11.99,18.02,0,24.03,0c6.01-6,6.01-6,12.02,0s12.02,11.99,30.04,0c18.02-6,12.02-6,30.04-6
			c0,6,0,11.99,6.01,17.99c0,11.99,6.01,11.99,12.02,11.99c6.01,0,18.02,0,24.03,6c0,6-18.02,11.99-18.02,17.99c0,0,0,0,0,6
			c0,0,6.01,0,12.02,0s12.02,0,12.02-6c6.01-6,12.02-11.99,12.02-17.99c6.01,0,12.02,6,12.02,11.99v6c0,6,12.02,6,12.02,6
			c6.01,0,6.01-6,12.02-6c0-6,6.01-11.99,12.02-11.99c0,0,0,6,6.01,11.99c0,6,0,6,6.01,6c6.01,0,24.03-6,24.03-6
			c0,3.77,0,9.91,0,15.44h198.26c0-3.6,0-7.02,0-9.45c1.8,3.59,4.18,6.61,6.89,9.45h218.19c0.7-3.52-1.01-9.45,3.22-9.45
			c6.01-6,12.02,0,18.02-11.99c0,0,0-6-6.01-6c-6.01-6-18.02-6-24.03-6c-6.01,0,6.01-6,6.01-6c6.01-6,12.02-6,12.02-11.99
			c6.01-6,0-6,0-17.99v-6c0-6-12.02,0-24.03,0c-6.01-6-6.01-6-18.02-11.99c6.01,0,6.01,0,12.02-6c0,6,6.01,6,12.02,11.99
			c6.01,6,24.03-11.99,30.04-6c6.01,0,0,11.99,6.01,17.99c0,0,24.03,0,30.04,0c-12.02,6-18.02,11.99-24.03,17.99
			c-6.01,6-6.01,6-12.02,11.99c-6.01,6,0,6,6.01,11.99c0,15.48,4.46,22.07,13.36,27.43h214.49c-3.19-9.42-24.04-9.45-29.59-9.45
			c-12.02,0-6.01-6,0-11.99c6.01,0,6.01,0,6.01-6c0-6,6.01-11.99,6.01-17.99c6.01-11.99-12.02,0-18.02-6c-6.01,0,0-6,6.01-11.99
			l6.01-6c-6.01-6-12.02-6-18.02-6c0,0-12.02,6-18.02,0l6.01-11.99c0-6,6.01-11.99-6.01-11.99c-6.01,0-12.02,6-18.02,11.99
			c0,6-6.01,17.99-12.02,17.99c0,0,0,0-6.01-6l-6.01-6c-12.02,0-18.02,0-24.03,0c6.01-6,6.01-6,0-11.99c0-6,0-11.99,6.01-11.99
			c6.01,0,18.02,0,18.02-6c6.01,0-6.01-6-6.01-6c-6.01-6-12.02-11.99-6.01-11.99c0-6,12.02,0,18.02,0s18.02,0,18.02-6
			c0,0-6.01-6-12.02-6c-18.02-6,0-11.99,0-17.99c0,0-6.01,0-12.02,0s-6.01,0-12.02-6v-6c-6.01,0-18.02-6-24.03,0
			c-12.02,0-24.03,0-36.05-6c0,0,0,0,6.01,0c6.01-6,6.01-6,6.01-11.99c0-11.99,6.01-11.99,18.02-11.99c12.02,0-6.01-6,6.01-11.99
			c6.01,0,24.03-6,24.03-11.99s-6.01-6-12.02-11.99c-12.02,0-18.02,0-30.04,6c-6.01,0-18.02,6-18.02-11.99v-6c0-6-6.01,0-12.02,0
			c0,0-12.02,6-12.02-6c6.01-6,18.02-23.98,0-23.98c-6.01,6-6.01,6-12.02,6c-6.01,0-12.02,6-18.02,0c-6.01,0-6.01-6-6.01-11.99
			c0-6-6.01,23.98-30.04,11.99c0,0-6.01,0-12.02-6c-6.01,0-12.02,0-24.03,6c0,0,0,0-6.01,0c-6.01,0-6.01-11.99-12.02-17.99
			c-6.01,0-6.01,11.99-6.01,17.99s0,17.99-6.01,29.98c-6.01,0-6.01,6-12.02,11.99c-6.01,0-6.01,0-6.01-6c0,0,12.02-17.99,6.01-23.98
			c0-6-6.01-6-12.02-6c-6.01,0-6.01,0-6.01,0c-6.01-6-12.02-11.99-18.02-6c-6.01,6-6.01,11.99-18.02,17.99s-18.02,6-30.04,0
			c6.01-6,6.01-6,6.01-6c6.01-6,0-11.99,0-17.99c-6.01-6,0-6,6.01-6c12.02,6,12.02,0,24.03-6c6.01,0,24.03-11.99,6.01-17.99
			c0,0,0,0-6.01,0c-12.02-6-12.02-6-12.02-17.99c-12.02-23.98-24.03-11.99-42.05,0c-12.02,6-12.02,6-24.03-6
			c-6.01-6-24.03-17.99-36.05-17.99c-6.01,6-6.01,6-12.02,11.99s-18.02,0-24.03,0c-12.02-6-42.05-17.99-48.06-6
			c-6.01,11.99,0,17.99,0,23.98l-6.01,6c-6.01,6-12.02-11.99-18.02-17.99c-6.01,0-6.01,6-12.02,11.99c0,0,0,6-6.01,6
			c-6.01,0-12.02,0-18.02,6h-6.01c-6.01,11.99,12.02,17.99,18.02,23.98c0,6,0,6,6.01,6c0,6,6.01,6,6.01,11.99
			c12.02,6,24.03,0,30.04,0c6.01,0-12.02,11.99-6.01,17.99c0,6,12.02,11.99,18.02,11.99c0,6,6.01,0,12.02-6c0,0,6.01-11.99,12.02-6
			c6.01,0,0,11.99,0,17.99s6.01,6,6.01,6c12.02,0,24.03,6,36.05,6c0,6,0,6,0,11.99c6.01,0,6.01,6,12.02,6c12.02,0,18.02-6,24.03,6
			c6.01,0,6.01,6,6.01,11.99c6.01,6,18.02,6,24.03,6c0,6,0,6,0,6l-18.02-6c-12.02,0-12.02-6-18.02-11.99c0-6-6.01-6-12.02-6
			c-6.01,6-12.02,6-24.03,6c-6.01-6-18.02-11.99-24.03-17.99c0,0-12.02-11.99-12.02-6c-6.01,0-6.01,6-6.01,6c0,6,6.01,11.99,0,11.99
			l-18.02,6v-6c0-11.99,0-23.98-6.01-29.98c-6.01-11.99-12.02-11.99-24.03-17.99c-6.01-6-12.02-11.99-18.02-11.99
			c-6.01,0-6.01,0-12.02,0c0-6,0-11.99-6.01-17.99c-6.01-17.99-12.02,0-18.02,0c-6.01,0-12.02-6-18.02-6
			c-24.03-17.99-18.02,0-30.04,11.99c-6.01,6-18.02,6-30.04,0c-12.02,0-42.05-17.99-54.07-6c0,6,0,11.99,0,17.99
			c-6.01,17.99-42.05,0-48.06,17.99c-6.01,11.99,0,11.99,0,17.99c-6.01,6-18.02,6-18.02,11.99c6.01,6,24.03,6,30.04,11.99
			c6.01,0,6.01,0,6.01,6c6.01,6,6.01,6,12.02,11.99c-12.02,0-18.02,0-24.03,0s-12.02-6-18.02-6c-12.02,0-12.02-17.99-18.02-17.99
			c-12.02-6-12.02,11.99-18.02,11.99c-6.01,0-6.01,0-12.02,6c0,0,0,6-6.01,6c-6.01,6-18.02-17.99-30.04-11.99
			c-6.01,6,6.01,17.99,6.01,23.98c0,0,0,6-6.01,6c-12.02,0-24.03,0-24.03,11.99c0,6,0,6,0,6v6c0,6-6.01,6-6.01,6
			c-6.01,0-24.03,6-18.02,11.99C276.34,1186.12,288.36,1186.12,294.37,1186.12z M937.2,1114.17c6.01,0,6.01,0,6.01,6
			c12.02,0,6.01,6,18.02,6c0-6,6.01-6,6.01-6c6.01,0,6.01,0,6.01,6h12.02c12.02,0,12.02,6,18.02,11.99c-6.01,0-6.01,0-6.01,0
			c0-11.99-6.01-11.99-18.02-6c-6.01,0-6.01,0-12.02,0s-18.02,6-18.02,11.99c-6.01,6-6.01,0-6.01-6c0,0,6.01-6,0-11.99
			c0,0-6.01-6-12.02-6C937.2,1120.17,937.2,1114.17,937.2,1114.17z M444.56,1156.14c0-6,18.02,6,30.04,0c6.01-6,6.01-6,12.02-11.99
			c12.02,0,12.02,6,18.02,6l6.01-6c0-6,0-17.99,6.01-11.99c6.01,6,6.01,17.99,12.02,23.98c6.01,11.99,12.02,0,18.02-6
			c0-6,0-11.99,6.01-11.99c6.01,6,0,17.99,6.01,23.98c6.01,0,6.01,0,12.02,0c6.01,0,6.01-23.98,12.02-23.98
			c12.02,0,12.02,17.99,18.02,17.99c0,0,12.02,0,18.02,0c0,11.99,0,17.99,6.01,23.98c6.01,6,6.01,11.99,12.02,17.99l6.01,6
			c6.01,6,12.02-6,18.02-6c12.02,0,18.02,6,24.03,11.99c6.01,0,24.03-6,30.04-11.99c6.01,0,18.02-6,24.03-6c6.01,0,6.01,0,6.01,0
			s-18.02,11.99-24.03,11.99c-6.01,6-24.03,11.99-36.05,11.99c-6.01,0-12.02-6-12.02,0c-6.01,0-6.01,0-6.01,6c0,0,6.01,6,12.02,6
			c0,6,6.01,11.99,6.01,17.99c6.01,6,12.02-6,18.02-11.99c6.01-6,6.01-6,18.02-6h12.02c0,0,0,0,6.01,6c0,0,0,6,6.01,6
			c12.02-6,12.02-11.99,24.03-17.99c0,0,6.01,0,12.02,0c12.02-6,0-17.99,6.01-23.98c6.01-6,18.02,11.99,24.03,11.99
			c6.01,0,6.01-6,12.02-6c6.01,0,6.01,0,6.01,0c12.02,0,18.02,6,18.02,11.99c6.01,6,12.02,11.99,18.02,11.99c6.01,0,18.02,0,18.02,6
			c-12.02,0-24.03,0-30.04-11.99c-6.01,0-12.02-11.99-18.02-11.99l-12.02,6c-6.01,0-6.01,6-6.01,11.99c0,17.99-6.01,6-18.02,6
			c-6.01-6-12.02,0-18.02,0c0,0-6.01,0-6.01,6s6.01,6,12.02,6c0,0,18.02,6,18.02,11.99c0,6-18.02,6-24.03,11.99c0,6,0,6,0,6
			c-6.01-6,6.01-11.99-6.01-6c-12.02,0-18.02,6-18.02-11.99c0,0,6.01-11.99,0-11.99c0-6-12.02,0-12.02,0
			c-6.01,0-6.01,17.99-12.02,17.99c-6.01,0-6.01-17.99-18.02-17.99c-6.01,0-12.02,6-12.02,11.99c-18.02,11.99-24.03-6-36.05-11.99
			c-6.01-6-18.02,0-24.03,0c0,0,0-6,0-11.99c0-11.99-18.02-6-24.03-11.99c-6.01-6,12.02-11.99,12.02-17.99c0-6-6.01-6-6.01-11.99
			c-6.01-6-12.02,0-18.02,0c0,6-6.01,6-6.01,6c-6.01,0,0-6,0-11.99c0-6-6.01-6-6.01-6c-6.01,0-12.02,6-18.02,11.99
			c-6.01,6-12.02,23.98-18.02,6c0-6,0-11.99-6.01-11.99c-6.01,0-6.01,0-12.02,0c-6.01-6-12.02-6-24.03-6c0-6,0-11.99-6.01-11.99
			c-12.02,0-12.02-6-18.02-11.99c-6.01,0-12.02,0-18.02,6c-6.01,0-18.02,0-24.03,0C450.57,1156.14,438.56,1156.14,444.56,1156.14z"
			/>
		<path class="st10" d="M420.89,1297.48c1.26-5.03,5.65-9.45,5.65-9.45c0-6,0-6,0-11.99c-6.01,0-12.02,6-18.02,6l-12.02,11.99
			c0-6,0-17.99,6.01-17.99c0-6,0-11.99-6.01-11.99c-6.01-6-6.01-6-12.02,0c-6.01,0-12.02,6-12.02,11.99
			c-6.01,6-6.01,17.99-12.02,17.99c-6.01,6-6.01-11.99-18.02-17.99c0,0-6.01,0-12.02,0c-12.02,6-18.02-11.99-36.05-17.99
			c-12.02,0-18.02,17.99-36.05,11.99c-12.02,0-30.04-6-30.04,17.99c0,3.67,0,6.73,0,9.45H420.89z"/>
		<path class="st10" d="M432.55,1294.03c0,0-1.57,1.56-3.61,3.45h19.05C442.84,1292.56,437.69,1288.9,432.55,1294.03z"/>
	</g>
	<path class="st11" d="M0.76,1297.48h229.1c0.05-3.39-0.42-6.85-1.58-10.33h6.01c-0.63,3.49-1.17,6.92-1.69,10.33h13.7
		c0-3.38,0-6.8,0-10.33c5.45,0,6,4.94,10.53,10.33h19.7c1.08-0.98,2.19-1.17,3.88,0h27.46c3.44-4.32-0.24-4.33,10.52-4.33
		c12.02,0,12.02-6,12.02-17.99c-6.01-6-6.01-6,0-11.99c12.02-11.99,6.01-11.99,24.03-11.99c12.02,0,18.02-6,24.03-17.99
		c0,0,0-6,6.01-6c0,0,0,0,0,6c0,0-6.01,6-12.02,11.99c-6.01,11.99-18.02,6-24.03,11.99c0,0-6.01,11.99,0,17.99c0,0,0,6,6.01,6
		c6.01-6,12.02-11.99,18.02-11.99c0,8.52-1.35,18.38-2.77,28.31H398c-1.49-9.08-1.5-19.5-1.5-28.31c6.01,6,6.01,6,12.02,11.99
		c6.01,6,12.02,11.99,18.02,0c0-6,0-6,6.01-6c6.01-6,12.02-6,18.02-11.99c0,11.44,0,22.87,0,34.31h203
		c-3.65-6.51-7.88-13.72-10.75-22.32c-6.01-6,0-11.99,0-17.99c0-6,0-6,0-11.99c0-11.99-12.02-11.99-24.03-17.99
		s-12.02-11.99-18.02-11.99c-6.01,0-24.03,0-30.04,6c-6.01,0-18.02,0-30.04,0c-6.01,0-6.01,6-12.02,6c-12.02,0-18.02,0-30.04,6
		c-6.01,0-12.02,0-18.02-6c0,0-18.02-17.99-18.02-6v-6c6.01-6,18.02,6,24.03,11.99c6.01,0,12.02-6,12.02-11.99v-6
		c-6.01-11.99-12.02-17.99-24.03-17.99c-6.01,0-18.02,0-18.02,0c-6.01-6,0-6,0-6c6.01,0,6.01,0,12.02,0c12.02,0,24.03,0,36.05,11.99
		c6.01,6,12.02,11.99,18.02,6c6.01-6,6.01-6,6.01-6c6.01,0,12.02,6,12.02,6c12.02,6,12.02,0,18.02-6c6.01,0,12.02,6,24.03,6
		c0,0,0,0,0-6c6.01,0,6.01,0,6.01-6s12.02-6,18.02-6c6.01-6,0-11.99,6.01-17.99c0-6,6.01-6,6.01-11.99v-6
		c0-6,12.02-11.99,12.02-17.99c6.01-6-12.02-6-18.02-6c-6.01,0-12.02,0-18.02-6c-6.01-6-6.01-6-12.02-11.99l6.01-6
		c6.01,0,0-11.99,18.02-11.99c12.02,6,12.02,11.99,30.04,11.99c0-6,6.01-6,12.02-6l12.02-6c0-11.99-24.03-11.99-30.04-11.99
		c-12.02,0-6.01-6,0-11.99c6.01,0,6.01,0,6.01-6c0-6,6.01-11.99,6.01-17.99c6.01-11.99-12.02,0-18.02-6c-6.01,0,0-6,6.01-11.99
		l6.01-6c-6.01-6-12.02-6-18.02-6c0,0-12.02,6-18.02,0l6.01-11.99c0-6,6.01-11.99-6.01-11.99c-6.01,0-12.02,6-18.02,11.99
		c0,6-6.01,17.99-12.02,17.99c0,0,0,0-6.01-6l-6.01-6c-12.02,0-18.02,0-24.03,0c6.01-6,6.01-6,0-11.99c0-6,0-11.99,6.01-11.99
		c6.01,0,18.02,0,18.02-6c6.01,0-6.01-6-6.01-6c-6.01-6-12.02-11.99-6.01-11.99c0-6,12.02,0,18.02,0c6.01,0,18.02,0,18.02-6
		c0,0-6.01-6-12.02-6c-18.02-6,0-11.99,0-17.99c0,0-6.01,0-12.02,0c-6.01,0-6.01,0-12.02-6v-6c-6.01,0-18.02-6-24.03,0
		c-12.02,0-24.03,0-36.05-6c0,0,0,0,6.01,0c6.01-6,6.01-6,6.01-11.99c0-11.99,6.01-11.99,18.02-11.99s-6.01-6,6.01-11.99
		c6.01,0,24.03-6,24.03-11.99c0-6-6.01-6-12.02-11.99c-12.02,0-18.02,0-30.04,6c-6.01,0-18.02,6-18.02-11.99v-6c0-6-6.01,0-12.02,0
		c0,0-12.02,6-12.02-6c6.01-6,18.02-23.98,0-23.98c-6.01,6-6.01,6-12.02,6s-12.02,6-18.02,0c-6.01,0-6.01-6-6.01-11.99
		c0-6-6.01,23.98-30.04,11.99c0,0-6.01,0-12.02-6c-6.01,0-12.02,0-24.03,6c0,0,0,0-6.01,0s-6.01-11.99-12.02-17.99
		c-6.01,0-6.01,11.99-6.01,17.99c0,6,0,17.99-6.01,29.98c-6.01,0-6.01,6-12.02,11.99c-6.01,0-6.01,0-6.01-6
		c0,0,12.02-17.99,6.01-23.98c0-6-6.01-6-12.02-6s-6.01,0-6.01,0c-6.01-6-12.02-11.99-18.02-6c-6.01,6-6.01,11.99-18.02,17.99
		c-12.02,6-18.02,6-30.04,0c6.01-6,6.01-6,6.01-6c6.01-6,0-11.99,0-17.99c-6.01-6,0-6,6.01-6c12.02,6,12.02,0,24.03-6
		c6.01,0,24.03-11.99,6.01-17.99c0,0,0,0-6.01,0c-12.02-6-12.02-6-12.02-17.99c-12.02-23.98-24.03-11.99-42.05,0
		c-12.02,6-12.02,6-24.03-6c-6.01-6-24.03-17.99-36.05-17.99c-6.01,6-6.01,6-12.02,11.99c-6.01,6-18.02,0-24.03,0
		c-12.02-6-42.05-17.99-48.06-6s0,17.99,0,23.98l-6.01,6c-6.01,6-12.02-11.99-18.02-17.99c-6.01,0-6.01,6-12.02,11.99
		c0,0,0,6-6.01,6c-6.01,0-12.02,0-18.02,6H5.99c-6.01,11.99,12.02,17.99,18.02,23.98c0,6,0,6,6.01,6c0,6,6.01,6,6.01,11.99
		c12.02,6,24.03,0,30.04,0s-12.02,11.99-6.01,17.99c0,6,12.02,11.99,18.02,11.99c0,6,6.01,0,12.02-6c0,0,6.01-11.99,12.02-6
		c6.01,0,0,11.99,0,17.99c0,6,6.01,6,6.01,6c12.02,0,24.03,6,36.05,6c0,6,0,6,0,11.99c6.01,0,6.01,6,12.02,6
		c12.02,0,18.02-6,24.03,6c6.01,0,6.01,6,6.01,11.99c6.01,6,18.02,6,24.03,6c0,6,0,6,0,6l-18.02-6c-12.02,0-12.02-6-18.02-11.99
		c0-6-6.01-6-12.02-6c-6.01,6-12.02,6-24.03,6c-6.01-6-18.02-11.99-24.03-17.99c0,0-12.02-11.99-12.02-6c-6.01,0-6.01,6-6.01,6
		c0,6,6.01,11.99,0,11.99l-18.02,6v-6c0-11.99,0-23.98-6.01-29.98c-6.01-11.99-12.02-11.99-24.03-17.99
		c-6.01-6-12.02-11.99-18.02-11.99c-6.01,0-6.01,0-12.02,0c0-6,0-11.99-6.01-17.99c-3.75-11.22-7.49-8.44-11.24-4.77v136.66
		c3.75,0,8.24,0,11.24,0c0,11.99,0,17.99,6.01,23.98c6.01,6,6.01,11.99,12.02,17.99l6.01,6c6.01,6,12.02-6,18.02-6
		c12.02,0,18.02,6,24.03,11.99c6.01,0,24.03-6,30.04-11.99c6.01,0,18.02-6,24.03-6c6.01,0,6.01,0,6.01,0s-18.02,11.99-24.03,11.99
		c-6.01,6-24.03,11.99-36.05,11.99c-6.01,0-12.02-6-12.02,0c-6.01,0-6.01,0-6.01,6c0,0,6.01,6,12.02,6c0,6,6.01,11.99,6.01,17.99
		c6.01,6,12.02-6,18.02-11.99c6.01-6,6.01-6,18.02-6h12.02c0,0,0,0,6.01,6c0,0,0,6,6.01,6c12.02-6,12.02-11.99,24.03-17.99
		c0,0,6.01,0,12.02,0c12.02-6,0-17.99,6.01-23.98c6.01-6,18.02,11.99,24.03,11.99c6.01,0,6.01-6,12.02-6s6.01,0,6.01,0
		c12.02,0,18.02,6,18.02,11.99c6.01,6,12.02,11.99,18.02,11.99c6.01,0,18.02,0,18.02,6c-12.02,0-24.03,0-30.04-11.99
		c-6.01,0-12.02-11.99-18.02-11.99l-12.02,6c-6.01,0-6.01,6-6.01,11.99c0,17.99-6.01,6-18.02,6c-6.01-6-12.02,0-18.02,0
		c0,0-6.01,0-6.01,6c0,6,6.01,6,12.02,6c0,0,18.02,6,18.02,11.99c0,6-18.02,6-24.03,11.99c0,6,0,6,0,6c-6.01-6,6.01-11.99-6.01-6
		c-12.02,0-18.02,6-18.02-11.99c0,0,6.01-11.99,0-11.99c0-6-12.02,0-12.02,0c-6.01,0-6.01,17.99-12.02,17.99
		c-6.01,0-6.01-17.99-18.02-17.99c-6.01,0-12.02,6-12.02,11.99c-18.02,11.99-24.03-6-36.05-11.99c-6.01-6-18.02,0-24.03,0
		c0,0,0-6,0-11.99c0-11.99-18.02-6-24.03-11.99c-6.01-6,12.02-11.99,12.02-17.99c0-6-6.01-6-6.01-11.99
		c-5.75-5.74-11.5-0.51-17.25-0.05v222.46c1.64,1.8,3.43,3.6,5.23,5.4c-1.74,0-3.49-0.53-5.23-1.25V1297.48z M330.41,903.46
		c6.01,0,6.01,0,6.01,6c12.02,0,6.01,6,18.02,6c0-6,6.01-6,6.01-6c6.01,0,6.01,0,6.01,6h12.02c12.02,0,12.02,6,18.02,11.99
		c-6.01,0-6.01,0-6.01,0c0-11.99-6.01-11.99-18.02-6c-6.01,0-6.01,0-12.02,0s-18.02,6-18.02,11.99c-6.01,6-6.01,0-6.01-6
		c0,0,6.01-6,0-11.99c0,0-6.01-6-12.02-6C330.41,909.45,330.41,903.46,330.41,903.46z M228.28,1173.25c6.01,0,12.02,6,18.02,6
		s12.02-6,12.02-6c6.01-6,12.02-6,12.02-6c6.01-6,6.01-6,6.01-11.99c0,0,0,0,0-6c-6.01,0-6.01-6-6.01-6
		c0-17.99-12.02-11.99-18.02-17.99c-6.01-6-6.01-6-12.02-11.99c6.01,6,12.02,6,18.02,6c6.01,0,18.02,6,24.03,6
		s6.01,17.99,6.01,23.98c6.01,6,18.02-6,18.02-6c6.01-6,12.02,0,18.02,0c6.01-6,6.01-6,12.02-11.99c6.01-6,18.02-6,30.04-6
		c6.01,0,12.02,0,18.02-6c0,0,0,0,6.01-6c0-6-6.01-11.99-6.01-17.99s12.02-6,18.02-6c6.01,0,0-11.99,6.01-11.99
		c6.01-6,12.02,0,18.02-11.99c0,0,0-6-6.01-6c-6.01-6-18.02-6-24.03-6s6.01-6,6.01-6c6.01-6,12.02-6,12.02-11.99c6.01-6,0-6,0-17.99
		v-6c0-6-12.02,0-24.03,0c-6.01-6-6.01-6-18.02-11.99c6.01,0,6.01,0,12.02-6c0,6,6.01,6,12.02,11.99c6.01,6,24.03-11.99,30.04-6
		c6.01,0,0,11.99,6.01,17.99c0,0,24.03,0,30.04,0c-12.02,6-18.02,11.99-24.03,17.99s-6.01,6-12.02,11.99c-6.01,6,0,6,6.01,11.99
		c0,17.99,6.01,23.98,18.02,29.98c0,6-6.01,6-6.01,6c-6.01,0-6.01,0-12.02,0c-6.01-6-12.02-6-18.02,0c0,6,0,6,0,11.99
		s-6.01,6-12.02,6c-12.02,11.99,0,17.99,0,23.98c0,11.99,0,17.99,6.01,23.98c-12.02,0-18.02-6-24.03-11.99
		c-6.01-6-12.02-11.99-18.02,0c0,6,0,11.99-6.01,11.99h-6.01c-6.01,0-12.02-6-18.02-6c-6.01-6-6.01,6-6.01,11.99
		c-6.01,11.99-6.01,11.99-12.02,11.99l-6.01,6c0,0,0-6-6.01-11.99c-6.01-6-12.02,0-12.02,6c-12.02,6-12.02,6-18.02,6
		c-12.02-6-18.02,6-24.03,6c-6.01,0-18.02-6-18.02-11.99c-6.01,0-12.02,0-18.02,0s-18.02,0-24.03,0s-6.01,0-6.01-6
		c6.01,0,18.02,0,18.02,0C210.26,1173.25,222.27,1167.25,228.28,1173.25z M180.22,1077.32c6.01,11.99,18.02,17.99,30.04,29.98
		c-6.01-6-18.02-6-30.04-6C180.22,1095.31,180.22,1083.32,180.22,1077.32z M138.17,1197.23c0-6,6.01,0,6.01,0
		c6.01,6,12.02,11.99,24.03,11.99c6.01,0,6.01,0,12.02,0s12.02,6,18.02,11.99l6.01,6c-6.01,0-12.02-6-12.02-6
		c-6.01-6-12.02-6-18.02-6s-6.01,0-12.02,6c-12.02,0-12.02,0-12.02,11.99c-6.01,0-6.01,0-6.01,0c-6.01-6-12.02-6-18.02-6
		c0-6,0-11.99-6.01-17.99c0,0,0,0-6.01-6C126.15,1203.22,126.15,1197.23,138.17,1197.23z M18.01,1167.25
		c0-11.99,18.02-6,18.02-11.99c6.01,0,0-17.99,0-17.99c12.02,0,24.03,0,30.04,0c0,0,6.01,0,6.01,6c-6.01,0-12.02,6-18.02,6
		c-6.01,6-6.01,6-6.01,11.99s-6.01,11.99-6.01,17.99c0,6,6.01,6,12.02,11.99c6.01,0,6.01,6,0,11.99c0,6,6.01,11.99,18.02,11.99
		s12.02,6,30.04,11.99c-6.01,0-12.02,0-18.02,0c-12.02,0-30.04,6-42.05,11.99c-12.02-11.99-12.02-17.99-18.02-29.98
		c-6.01-11.99-6.01-17.99-12.02-29.98C18.01,1179.24,18.01,1173.25,18.01,1167.25z"/>
	<g class="st3">
		<g>
			<path class="st12" d="M2438.44,74.03c1.93,0,1.93-3,0-3C2436.5,71.03,2436.5,74.03,2438.44,74.03L2438.44,74.03z"/>
		</g>
	</g>
	<g class="st3">
		<g>
			<path class="st12" d="M2438.44,74.03c1.93,0,1.93-3,0-3C2436.5,71.03,2436.5,74.03,2438.44,74.03L2438.44,74.03z"/>
		</g>
	</g>
</g>
</svg>
