<?xml version="1.0" encoding="utf-8"?>
<!-- Generator: Adobe Illustrator 24.0.0, SVG Export Plug-In . SVG Version: 6.00 Build 0)  -->
<svg version="1.1" id="Layer_1" xmlns="http://www.w3.org/2000/svg" xmlns:xlink="http://www.w3.org/1999/xlink" x="0px" y="0px"
	 viewBox="0 0 500 500" style="enable-background:new 0 0 500 500;" xml:space="preserve">
<style type="text/css">
	.st0{fill:#FAEBD7;}
</style>
<path class="st0" d="M7.26,498.93h485.85c3.74,0,6.23-2.49,6.23-6.23c0-3.74-2.49-6.23-6.23-6.23h-67.27v-39.24h67.27
	c1.87,0,3.74-1.25,4.98-2.49c1.25-1.87,1.25-3.74,0.62-5.61l-29.28-73.5h9.34c1.87,0,3.74-1.25,4.98-2.49
	c1.25-1.25,1.25-3.74,0.62-5.61l-26.16-64.16h5.61c1.87,0,4.36-1.25,4.98-3.11c0.62-1.87,1.25-4.36,0-6.23l-43.6-90.32
	c-1.25-1.87-3.11-3.74-5.61-3.74c-2.49,0-4.36,1.25-5.61,3.74l-18.06,36.75l-89.7-146.38h39.86c3.74,0,6.23-2.49,6.23-6.23
	c0-9.97,6.85-19.31,17.44-23.05c2.49-0.62,4.36-3.74,4.36-6.23v-1.25c0-18.69,16.2-34.26,36.13-34.26
	c19.93,0,36.13,15.57,36.13,34.26c0,2.49,0,4.36-0.62,6.85c-0.62,1.87,0,4.36,1.87,5.61c1.87,1.25,3.74,1.87,6.23,1.25
	c2.49-0.62,4.98-1.25,7.47-1.25c14.33,0,25.54,10.59,25.54,24.29c0,3.74,2.49,6.23,6.23,6.23s6.23-2.49,6.23-6.23
	c0-20.56-18.06-38-40.49-36.75v-0.62c0-25.54-21.8-46.72-48.59-46.72c-26.16,0-47.34,19.31-48.59,44.23
	c-11.21,4.98-19.31,14.95-21.18,26.78h-41.73L257.04,3.11C255.79,1.25,253.93,0,252.06,0l0,0c-1.87,0-4.36,1.25-4.98,3.11
	L103.81,230.47l-18.06-36.75c-1.87-4.36-9.34-4.36-11.21,0l-44.23,89.7c-1.25,1.87-0.62,4.36,0,6.23c0.62,1.87,3.11,3.11,4.98,3.11
	h5.61l-26.16,64.16c-0.62,1.87-0.62,4.36,0.62,5.61s3.11,2.49,4.98,2.49h9.34l-29.28,73.5c-0.62,1.87-0.62,4.36,0.62,5.61
	c1.25,1.87,3.11,2.49,4.98,2.49h66.65v39.86H7.26c-3.74,0-6.23,2.49-6.23,6.23C1.03,496.44,3.52,498.93,7.26,498.93z M483.77,434.78
	H356.08l28.03-69.76h71.63L483.77,434.78z M469.44,352.56h-9.34l0,0h-80.35l0,0h-9.34l24.92-60.42h49.83L469.44,352.56z
	 M419.61,210.54l34.26,69.76h-67.89L419.61,210.54z M251.43,18.69l64.78,105.27l-17.44,25.54l-19.31-27.41
	c-2.49-3.11-8.1-3.11-9.97,0l-19.31,27.41l-19.31-27.41c-1.25-1.87-3.11-2.49-4.98-2.49s-3.74,1.25-4.98,2.49l-19.31,27.41
	l-16.82-24.29L251.43,18.69z M80.14,210.54l34.26,69.76H46.5L80.14,210.54z M55.22,292.14h49.83l24.92,60.42h-9.34l0,0H40.27l0,0
	h-9.34L55.22,292.14z M44.63,365.01h71.63l28.03,69.76H16.6L44.63,365.01z M86.37,447.23h66.65c1.87,0,3.74-1.25,4.98-2.49
	c1.25-1.87,1.25-3.74,0.62-5.61l-29.28-73.5h9.34c1.87,0,3.74-1.25,4.98-2.49c1.25-1.25,1.25-3.74,0.62-5.61l-26.16-64.16h5.61
	c1.87,0,4.36-1.25,4.98-3.11c0.62-1.87,1.25-4.36,0-6.23l-18.06-40.49l67.27-106.51l19.31,27.41c2.49,3.11,8.1,3.11,9.97,0
	l19.31-27.41l19.31,27.41c2.49,3.11,8.1,3.11,9.97,0l19.31-27.41l19.31,27.41c1.25,1.87,3.11,2.49,4.98,2.49
	c1.87,0,3.74-1.25,4.98-2.49l19.93-28.03l66.03,107.76l-19.93,40.49c-1.25,1.87-0.62,4.36,0,6.23c0.62,1.87,3.11,3.11,4.98,3.11
	h5.61l-26.16,64.16c-0.62,1.87-0.62,4.36,0.62,5.61s3.11,2.49,4.98,2.49h9.34l-29.28,73.5c-0.62,1.87-0.62,4.36,0.62,5.61
	c1.25,1.87,3.11,2.49,4.98,2.49h66.65v38.62H256.42v-39.24h66.65c1.87,0,3.74-1.25,4.98-2.49c1.25-1.87,1.25-3.74,0.62-5.61
	l-29.28-73.5h9.34c1.87,0,3.74-1.25,4.98-2.49c1.25-1.25,1.25-3.74,0.62-5.61l-26.16-64.16h5.61c1.87,0,4.36-1.25,4.98-3.11
	c0.62-1.87,1.25-4.36,0-6.23l-42.98-90.32c-1.87-4.36-9.34-4.36-11.21,0l-44.23,89.7c-1.25,1.87-0.62,4.36,0,6.23
	c0.62,1.87,3.11,3.11,4.98,3.11h5.61l-26.16,64.16c-0.62,1.87-0.62,4.36,0.62,5.61s3.11,2.49,4.98,2.49h9.34l-29.28,73.5
	c-0.62,1.87-0.62,4.36,0.62,5.61c1.25,1.87,3.11,2.49,4.98,2.49h67.89v39.86H86.37V447.23z M215.93,279.68l34.26-69.14l34.26,69.76
	h-68.52V279.68z M275.1,292.14l24.92,60.42h-9.34l0,0H209.7l0,0h-9.34l24.92-60.42H275.1z M286.32,365.01l28.03,69.76H186.65
	l28.03-69.76H286.32z"/>
<path class="st0" d="M125.61,82.84c0-23.67-19.31-42.98-42.36-42.98c-23.67,0-42.36,19.31-42.36,42.98s19.31,42.98,42.36,42.98
	C106.3,125.2,125.61,106.51,125.61,82.84z M83.25,112.74c-16.82,0-29.9-13.7-29.9-30.52s13.7-30.52,29.9-30.52
	c16.82,0,29.9,13.7,29.9,30.52S99.45,112.74,83.25,112.74z"/>
<path class="st0" d="M89.48,21.8V6.85c0-3.74-2.49-6.23-6.23-6.23s-6.23,2.49-6.23,6.23V21.8c0,3.74,2.49,6.23,6.23,6.23
	S89.48,24.92,89.48,21.8z"/>
<path class="st0" d="M44.01,43.6c2.49-2.49,2.49-6.23,0-8.72L33.42,24.29c-2.49-2.49-6.23-2.49-8.72,0s-2.49,6.23,0,8.72L35.29,43.6
	c1.25,1.25,3.11,1.87,4.36,1.87C40.9,45.47,42.77,44.85,44.01,43.6z"/>
<path class="st0" d="M7.26,89.07h14.33c3.74,0,6.23-2.49,6.23-6.23s-2.49-6.23-6.23-6.23H7.26c-3.74,0-6.23,2.49-6.23,6.23
	S3.52,89.07,7.26,89.07z"/>
<path class="st0" d="M25.32,140.77c1.25,1.25,3.11,1.87,4.36,1.87c1.87,0,3.11-0.62,4.36-1.87l10.59-10.59
	c2.49-2.49,2.49-6.23,0-8.72c-2.49-2.49-6.23-2.49-8.72,0l-10.59,10.59C22.83,134.54,22.83,138.28,25.32,140.77z"/>
<path class="st0" d="M77.02,143.89v14.95c0,3.74,2.49,6.23,6.23,6.23s6.23-2.49,6.23-6.23v-14.95c0-3.74-2.49-6.23-6.23-6.23
	S77.02,140.77,77.02,143.89z"/>
<path class="st0" d="M132.46,140.77c1.25,1.25,3.11,1.87,4.36,1.87s3.11-0.62,4.36-1.87c2.49-2.49,2.49-6.23,0-8.72l-10.59-10.59
	c-2.49-2.49-6.23-2.49-8.72,0s-2.49,6.23,0,8.72L132.46,140.77z"/>
<path class="st0" d="M158.62,89.07c3.74,0,6.23-2.49,6.23-6.23s-2.49-6.23-6.23-6.23H144.3c-3.74,0-6.23,2.49-6.23,6.23
	s2.49,6.23,6.23,6.23H158.62z"/>
<path class="st0" d="M130.59,43.6l10.59-10.59c2.49-2.49,2.49-6.23,0-8.72c-2.49-2.49-6.23-2.49-8.72,0l-10.59,10.59
	c-2.49,2.49-2.49,6.23,0,8.72c1.25,1.25,3.11,1.87,4.36,1.87C128.1,45.47,129.35,44.85,130.59,43.6z"/>
</svg>
