<?xml version="1.0" encoding="utf-8"?>
<!-- Generator: Adobe Illustrator 24.0.0, SVG Export Plug-In . SVG Version: 6.00 Build 0)  -->
<svg version="1.1" id="Layer_1" xmlns="http://www.w3.org/2000/svg" xmlns:xlink="http://www.w3.org/1999/xlink" x="0px" y="0px"
	 viewBox="0 0 500 500" style="enable-background:new 0 0 500 500;" xml:space="preserve">
<style type="text/css">
	.st0{fill:#FAEBD7;}
</style>
<path class="st0" d="M6.36,499.57h487.39c3.45,0,6.25-2.79,6.25-6.25c0-3.45-2.79-6.25-6.25-6.25h-67.23v-39.09h67.02
	c2.07,0,4.01-1.03,5.17-2.75c1.16-1.71,1.4-3.9,0.63-5.82l-29.58-73.96h9.66c2.09,0,4.03-1.04,5.19-2.77
	c1.16-1.73,1.38-3.92,0.59-5.85l-26.51-64.49h5.8c2.15,0,4.16-1.11,5.3-2.94c1.14-1.83,1.26-4.12,0.31-6.06l-44.23-90.21
	c-1.05-2.14-3.22-3.5-5.61-3.5s-4.56,1.35-5.61,3.5l-17.94,36.58l-90.2-146.31h39.72c3.45,0,6.25-2.79,6.25-6.25
	c0-10.25,7.02-19.43,17.46-22.84c2.68-0.87,4.44-3.44,4.3-6.26l-0.09-1.45c0-18.9,16.34-34.28,36.41-34.28
	c20.08,0,36.41,15.38,36.41,34.28c0,2.32-0.25,4.65-0.75,6.93c-0.46,2.14,0.23,4.37,1.82,5.88c1.6,1.5,3.86,2.07,5.97,1.47
	c2.79-0.77,5.13-1.14,7.35-1.14c14.29,0,25.92,10.9,25.92,24.31c0,3.45,2.79,6.25,6.25,6.25c3.45,0,6.25-2.79,6.25-6.25
	c0-20.9-18.34-37.97-40.31-36.75c0.01-0.23,0.01-0.46,0.01-0.7c0-25.79-21.94-46.77-48.9-46.77c-26.11,0-47.5,19.66-48.84,44.31
	c-11.2,5.17-19.07,15.18-21.17,26.76h-41.74L256.75,2.65c-1.13-1.84-3.14-2.96-5.3-2.97c-0.01,0-0.02,0-0.02,0
	c-2.15,0-4.15,1.1-5.29,2.92L103.3,229.97l-18.07-36.85c-2.1-4.28-9.12-4.28-11.22,0l-44.23,90.21c-0.95,1.94-0.84,4.23,0.31,6.06
	c1.14,1.83,3.15,2.94,5.3,2.94h5.8l-26.51,64.49c-0.79,1.93-0.57,4.12,0.59,5.85c1.16,1.73,3.11,2.77,5.19,2.77h9.66L0.55,439.41
	c-0.77,1.92-0.53,4.11,0.63,5.82c1.17,1.71,3.1,2.75,5.17,2.75h67.02v39.09H6.36c-3.45,0-6.25,2.79-6.25,6.25
	C0.11,496.77,2.9,499.57,6.36,499.57z M484.32,435.48H356.23l28.01-70.03h72.07L484.32,435.48z M470.11,352.95h-9.43
	c-0.02,0-0.03,0-0.05,0h-80.7c-0.02,0-0.04,0-0.06,0h-9.43l24.92-60.62h49.83L470.11,352.95z M420.27,210.07l34.2,69.77h-68.41
	L420.27,210.07z M251.38,17.75l65.19,105.75l-17.79,25.52l-19.22-27.56c-2.34-3.34-7.91-3.34-10.25,0l-19.22,27.56l-19.23-27.56
	c-1.17-1.67-3.08-2.67-5.13-2.67s-3.95,0.99-5.13,2.67l-19.25,27.57l-17.08-24.46L251.38,17.75z M79.63,210.07l34.21,69.77H45.42
	L79.63,210.07z M54.71,292.33h49.83l24.92,60.62h-9.43c-0.02,0-0.03,0-0.05,0H39.27c-0.02,0-0.04,0-0.06,0H29.8L54.71,292.33z
	 M43.59,365.45h72.08l28.01,70.03H15.58L43.59,365.45z M85.87,447.98h67.03c2.07,0,4.01-1.03,5.17-2.75c1.16-1.71,1.4-3.9,0.63-5.82
	l-29.58-73.96h9.66c2.09,0,4.03-1.04,5.19-2.77c1.16-1.73,1.38-3.92,0.59-5.85l-26.51-64.49h5.81c2.15,0,4.16-1.11,5.3-2.94
	c1.14-1.83,1.26-4.12,0.31-6.06l-19.7-40.16l67.29-107.11l19.17,27.46c2.34,3.36,7.91,3.36,10.25,0l19.25-27.57l19.23,27.57
	c2.34,3.34,7.92,3.34,10.25,0l19.22-27.56l19.22,27.56c1.17,1.67,3.08,2.67,5.13,2.67c2.04,0,3.95-1,5.13-2.67l19.82-28.42
	l66.5,107.87l-19.79,40.36c-0.95,1.94-0.84,4.23,0.31,6.06s3.15,2.94,5.3,2.94h5.81l-26.51,64.49c-0.79,1.93-0.57,4.12,0.59,5.85
	c1.16,1.73,3.11,2.77,5.19,2.77h9.66l-29.58,73.96c-0.77,1.92-0.53,4.11,0.63,5.82c1.17,1.71,3.1,2.75,5.17,2.75h67.03v39.09H256.3
	v-39.09h67.02c2.07,0,4.01-1.03,5.17-2.75c1.16-1.71,1.4-3.9,0.63-5.82l-29.58-73.96h9.66c2.09,0,4.03-1.04,5.19-2.77
	c1.16-1.73,1.38-3.92,0.59-5.85l-26.51-64.49h5.81c2.15,0,4.16-1.11,5.3-2.94s1.26-4.12,0.31-6.06l-44.23-90.21
	c-2.1-4.28-9.12-4.28-11.22,0l-44.23,90.21c-0.95,1.94-0.84,4.23,0.31,6.06c1.14,1.83,3.15,2.94,5.3,2.94h5.81l-26.51,64.49
	c-0.79,1.93-0.57,4.12,0.59,5.85c1.16,1.73,3.11,2.77,5.19,2.77h9.66l-29.58,73.96c-0.77,1.92-0.53,4.11,0.63,5.82
	c1.17,1.71,3.1,2.75,5.17,2.75h67.02v39.09H85.87V447.98z M215.85,279.83l34.21-69.77l34.21,69.77H215.85z M274.97,292.33
	l24.92,60.62h-9.44c-0.02,0-0.03,0-0.05,0h-80.7c-0.02,0-0.04,0-0.06,0h-9.43l24.92-60.62H274.97z M286.09,365.45l28.01,70.03
	H186.01l28.01-70.03H286.09z"/>
<path class="st0" d="M125.12,82.08c0-23.62-19.19-42.84-42.76-42.84c-23.58,0-42.77,19.22-42.77,42.84s19.19,42.84,42.77,42.84
	C105.93,124.92,125.12,105.7,125.12,82.08z M82.35,112.42c-16.7,0-30.27-13.61-30.27-30.35s13.58-30.35,30.27-30.35
	c16.69,0,30.27,13.61,30.27,30.35S99.04,112.42,82.35,112.42z"/>
<path class="st0" d="M88.6,20.61V5.92c0-3.45-2.79-6.25-6.25-6.25s-6.25,2.79-6.25,6.25v14.69c0,3.45,2.79,6.25,6.25,6.25
	S88.6,24.06,88.6,20.61z"/>
<path class="st0" d="M43.39,43.04c2.45-2.43,2.45-6.4,0.01-8.84L33.04,23.81c-2.44-2.45-6.4-2.44-8.84-0.01
	c-2.45,2.43-2.45,6.4-0.01,8.84l10.36,10.39c1.22,1.23,2.83,1.84,4.42,1.84S42.17,44.25,43.39,43.04z"/>
<path class="st0" d="M6.36,88.33h14.66c3.45,0,6.25-2.79,6.25-6.25c0-3.45-2.79-6.25-6.25-6.25H6.36c-3.45,0-6.25,2.79-6.25,6.25
	C0.11,85.53,2.9,88.33,6.36,88.33z"/>
<path class="st0" d="M24.21,140.35c1.22,1.21,2.81,1.82,4.41,1.82c1.6,0,3.2-0.61,4.42-1.84l10.36-10.39
	c2.43-2.44,2.43-6.4-0.01-8.84c-2.45-2.43-6.4-2.43-8.84,0.01l-10.36,10.39C21.76,133.96,21.76,137.92,24.21,140.35z"/>
<path class="st0" d="M76.11,143.55v14.69c0,3.45,2.79,6.25,6.25,6.25s6.25-2.79,6.25-6.25v-14.69c0-3.45-2.79-6.25-6.25-6.25
	S76.11,140.09,76.11,143.55z"/>
<path class="st0" d="M131.67,140.34c1.22,1.23,2.83,1.84,4.42,1.84s3.2-0.61,4.41-1.82c2.45-2.44,2.45-6.4,0.01-8.84l-10.37-10.39
	c-2.44-2.45-6.41-2.44-8.84-0.01c-2.45,2.44-2.45,6.4-0.01,8.84L131.67,140.34z"/>
<path class="st0" d="M158.35,88.33c3.45,0,6.25-2.79,6.25-6.25c0-3.45-2.79-6.25-6.25-6.25h-14.66c-3.45,0-6.25,2.79-6.25,6.25
	c0,3.45,2.79,6.25,6.25,6.25H158.35z"/>
<path class="st0" d="M130.15,43.03l10.36-10.39c2.43-2.44,2.43-6.4-0.01-8.84c-2.44-2.43-6.4-2.43-8.84,0.01L121.3,34.21
	c-2.43,2.44-2.43,6.4,0.01,8.84c1.22,1.21,2.81,1.82,4.41,1.82C127.33,44.87,128.93,44.26,130.15,43.03z"/>
</svg>
