<?xml version="1.0" encoding="utf-8"?>
<!-- Generator: Adobe Illustrator 24.0.0, SVG Export Plug-In . SVG Version: 6.00 Build 0)  -->
<svg version="1.1" id="Layer_1" xmlns="http://www.w3.org/2000/svg" xmlns:xlink="http://www.w3.org/1999/xlink" x="0px" y="0px"
	 viewBox="0 0 500 500" style="enable-background:new 0 0 500 500;" xml:space="preserve">
<style type="text/css">
	.st0{fill:#FAEBD7;}
</style>
<path class="st0" d="M97.28,0h-3.67C77.99,0,65.28,13.24,65.28,29.52V45.9H34.16c-18.87,0-34.23,15.36-34.23,34.23v283.64
	c0,18.87,15.36,34.23,34.23,34.23h31.13v88.69H6.17c-3.45,0-6.24,2.79-6.24,6.24c0,3.45,2.79,6.24,6.24,6.24h486.69
	c3.45,0,6.24-2.79,6.24-6.24c0-3.45-2.79-6.24-6.24-6.24h-59.11V398h31.13c18.87,0,34.23-15.36,34.23-34.23V80.13
	c0-18.87-15.36-34.23-34.23-34.23h-31.13V29.52C433.74,13.24,421.04,0,405.42,0h-3.67c-15.62,0-28.33,13.24-28.33,29.52V45.9h-247.8
	V29.52C125.61,13.24,112.9,0,97.28,0z M77.76,29.52c0-9.4,7.11-17.04,15.85-17.04h3.67c8.74,0,15.85,7.64,15.85,17.04V45.9H77.76
	V29.52z M77.76,398h35.37v88.69H77.76V398z M373.42,398v88.69h-247.8V398H373.42z M421.26,486.69H385.9V398h35.37V486.69z
	 M486.62,80.13v283.64c0,11.99-9.76,21.75-21.75,21.75H34.16c-11.99,0-21.75-9.76-21.75-21.75V80.13c0-11.99,9.76-21.75,21.75-21.75
	h430.71C476.86,58.38,486.62,68.14,486.62,80.13z M385.9,29.52c0-9.4,7.11-17.04,15.85-17.04h3.67c8.74,0,15.85,7.64,15.85,17.04
	V45.9H385.9V29.52z"/>
<path class="st0" d="M203.73,220.77l-35.95,40.41c-12.18,12.18-17.23,29.5-13.52,46.34c3.81,17.27,16.1,30.88,33.73,37.34
	c17.66,6.47,37.64,1.42,50.93-12.86c0,0,0,0,0,0c5.54-5.95,15.66-5.95,21.2,0c9.44,10.16,22.27,15.65,35.25,15.65
	c5.27,0,10.57-0.91,15.68-2.78c17.62-6.46,29.92-20.07,33.73-37.34c3.72-16.84-1.34-34.17-13.27-46.08l-36.2-40.68
	c-11.62-13.05-28.31-20.54-45.79-20.54C232.04,200.22,215.35,207.71,203.73,220.77z M249.52,212.7c13.92,0,27.22,5.96,36.47,16.36
	l36.45,40.94c9.15,9.15,12.95,22.17,10.15,34.83c-2.87,13.03-12.29,23.35-25.84,28.31c-12.92,4.75-27.64,0.95-37.49-9.65
	c-5.08-5.47-12.28-8.6-19.74-8.6s-14.65,3.14-19.74,8.6c-9.85,10.6-24.56,14.39-37.49,9.65c-13.55-4.96-22.97-15.29-25.84-28.32
	c-2.79-12.66,1.01-25.67,10.4-35.09l36.2-40.67C222.31,218.67,235.6,212.7,249.52,212.7z"/>
<path class="st0" d="M191.01,171.17c5.66,4.6,12,6.98,18.49,6.98c0.92,0,1.84-0.05,2.77-0.14c18.51-1.93,31.54-23.4,29.05-47.84
	c-1.43-14.08-7.58-26.48-16.86-34.03c-6.46-5.25-13.82-7.63-21.26-6.84c-18.51,1.93-31.55,23.39-29.05,47.84
	C175.58,151.22,181.73,163.63,191.01,171.17z M204.49,101.71c0.48-0.05,0.96-0.07,1.43-0.07c4.51,0,8.24,2.21,10.66,4.18
	c6.63,5.39,11.23,14.97,12.32,25.62c1.76,17.32-6.45,32.97-17.93,34.17c-5.17,0.54-9.42-1.94-12.09-4.11
	c-6.63-5.39-11.24-14.97-12.32-25.62C184.79,118.55,193,102.91,204.49,101.71z"/>
<path class="st0" d="M141.24,220.27c3.19,1.01,6.34,1.52,9.4,1.52c4.27,0,8.35-0.98,12.09-2.94c15.84-8.28,20.03-32.02,9.35-52.92
	c0,0,0,0,0,0c-6.14-12.01-15.9-20.88-26.77-24.34c-7.63-2.43-15.06-1.95-21.48,1.42c-15.84,8.28-20.03,32.02-9.35,52.92
	C120.61,207.94,130.36,216.81,141.24,220.27z M129.61,154.07c2.12-1.11,4.29-1.5,6.32-1.5c2.1,0,4.03,0.42,5.59,0.91
	c7.61,2.42,14.88,9.2,19.45,18.13h0c7.45,14.58,5.61,31.14-4.02,36.18c-4.3,2.25-8.86,1.56-11.92,0.59
	c-7.61-2.42-14.87-9.2-19.44-18.13C118.13,175.68,119.98,159.11,129.61,154.07z"/>
<path class="st0" d="M286.77,178.01c0.93,0.1,1.85,0.14,2.78,0.14c6.49,0,12.83-2.38,18.48-6.98c9.28-7.55,15.43-19.95,16.86-34.03
	c2.5-24.45-10.54-45.91-29.05-47.84c-7.45-0.76-14.8,1.58-21.26,6.84c-9.28,7.55-15.43,19.95-16.86,34.03
	C255.23,154.62,268.26,176.09,286.77,178.01z M270.13,131.44C270.13,131.44,270.13,131.44,270.13,131.44
	c1.08-10.65,5.69-20.22,12.32-25.61c2.42-1.97,6.15-4.19,10.66-4.19c0.47,0,0.95,0.02,1.43,0.08c11.49,1.2,19.7,16.85,17.94,34.17
	c-1.08,10.65-5.69,20.22-12.32,25.61c-2.67,2.17-6.92,4.66-12.09,4.11C276.58,164.4,268.37,148.76,270.13,131.44z"/>
<path class="st0" d="M336.32,218.86c3.74,1.96,7.82,2.94,12.09,2.94c3.06,0,6.21-0.51,9.4-1.52c10.87-3.46,20.63-12.33,26.77-24.34
	c10.68-20.89,6.48-44.63-9.36-52.91c-6.43-3.35-13.85-3.85-21.49-1.42c-10.87,3.46-20.63,12.33-26.77,24.34
	C316.29,186.84,320.48,210.58,336.32,218.86z M338.08,171.62c4.56-8.93,11.83-15.71,19.43-18.13c1.56-0.49,3.49-0.91,5.59-0.91
	c2.03,0,4.21,0.39,6.32,1.5c9.63,5.04,11.47,21.6,4.02,36.18c-4.56,8.93-11.83,15.71-19.44,18.13c-3.06,0.97-7.61,1.67-11.92-0.59
	C332.47,202.77,330.63,186.2,338.08,171.62z"/>
</svg>
